<?xml version="1.0" encoding="utf-8"?>
<!-- Generator: Adobe Illustrator 22.0.1, SVG Export Plug-In . SVG Version: 6.00 Build 0)  -->
<svg version="1.1" id="Layer_1" xmlns="http://www.w3.org/2000/svg" xmlns:xlink="http://www.w3.org/1999/xlink" x="0px" y="0px"
	 viewBox="0 0 300 300" style="enable-background:new 0 0 300 300;" xml:space="preserve">
<style type="text/css">
	.st0{fill:#AAAAAA;}
</style>
<g>
	<polygon class="st0" points="176.7,82.5 199,82.5 199,86.1 168.9,107.5 157.1,107.5 157.1,104.6 	"/>
	<path class="st0" d="M71,152.2c0,4.6-1.1,19.3-14.2,19.3c-5.8,0-10.8-3.8-12.3-9.6c-0.2-1.2-0.4-2.4-0.4-3.6v-10.7
		c0-1.1,0.3-2.4,0.6-3.4c0,0,0,0,0-0.1c1.6-6.2,6.8-10.5,12.5-10.5C66.7,133.7,71,143,71,152.2L71,152.2z M60.7,114.9
		c-7,0-13.2,1.9-18.3,5.5c-0.3-2.3-2.3-4.1-4.8-4.1H27.4c-1.3,0-2.6,0.5-3.5,1.5c-1,1-1.4,2.2-1.4,3.6c0.3,6.3,0.5,12.4,0.5,20.3
		v67.9c0,2.7,2.1,4.9,4.9,4.9h11.3c2.7,0,4.9-2.1,4.9-4.9v-23.2c4.3,2.4,9.2,3.7,14.8,3.7c16,0,33.4-12.1,33.4-38.6
		C92.1,130.3,78.9,114.9,60.7,114.9L60.7,114.9z"/>
	<path class="st0" d="M119.5,87.1h-11.4c-2.7,0-4.9,2.1-4.9,4.9v92c0,2.7,2.1,4.9,4.9,4.9h11.4c2.7,0,4.9-2.1,4.9-4.9V91.9
		C124.4,89.2,122.2,87.1,119.5,87.1L119.5,87.1z"/>
	<path class="st0" d="M171.6,133.2c11.1,0,13.9,12.6,13.9,19.2c0,11.3-6,19.6-14.2,19.6c-8.2,0-14.2-8.1-14.2-19.2
		C157,150.7,157.5,133.2,171.6,133.2L171.6,133.2z M171.8,114.9c-21.1,0-36,15.7-36,38.2c0,10.8,3.5,20.2,10,27
		c6.4,6.6,15.2,10.2,24.9,10.2c17.4,0,36.1-11.9,36.1-38.2C206.9,130.2,192.4,114.9,171.8,114.9L171.8,114.9z"/>
	<path class="st0" d="M276.7,118.4c-1-1.3-2.4-2.1-4-2.1h-12c-2.1,0-3.9,1.4-4.6,3.3L244,155.3l-13.3-35.8c-0.7-1.9-2.6-3.2-4.6-3.2
		h-12.4c-1.6,0-3.1,0.9-4,2.1c-0.9,1.4-1.1,3.1-0.5,4.6l23.2,57.7c0.2,0.5,0.3,0.9,0.3,1.1c-0.1,0.3-0.3,0.7-0.4,1
		c-2.8,6.3-7,9.9-8.2,10.8l-0.1,0.1c-3.4,2.9-7,4.3-8.3,4.7c-2.6,0.9-3.9,3.5-3.2,6.1l2.9,9.6c0.6,2.1,2.6,3.5,4.7,3.5
		c0.3,0,0.5,0,0.9-0.1c2-0.3,9-2,16.4-8.5c9-7.9,15-20.5,22.8-41.2l17.1-44.7C277.8,121.4,277.6,119.8,276.7,118.4L276.7,118.4z"/>
</g>
</svg>
