<?xml version="1.0" encoding="utf-8"?>
<!-- Generator: Adobe Illustrator 22.0.1, SVG Export Plug-In . SVG Version: 6.00 Build 0)  -->
<svg version="1.1" id="Layer_1" xmlns="http://www.w3.org/2000/svg" xmlns:xlink="http://www.w3.org/1999/xlink" x="0px" y="0px"
	 viewBox="0 0 300 300" style="enable-background:new 0 0 300 300;" xml:space="preserve">
<style type="text/css">
	.st0{fill:#AAAAAA;}
</style>
<g>
	<g>
		<path class="st0" d="M41.2,127.1v27.5c0,12-6.9,18.2-18.6,18.2S4,166.6,4,154.6v-27.5h9.9v26c0,6.2,1.9,9.7,8.7,9.7
			s8.7-3.5,8.7-9.7v-26L41.2,127.1L41.2,127.1z"/>
		<polygon class="st0" points="73.6,172.2 58.1,144.1 58.1,172.2 48.2,172.2 48.2,127.1 58.1,127.1 73.6,155.2 73.6,127.1 
			83.5,127.1 83.5,172.2 		"/>
		<polygon class="st0" points="110.6,172.2 100.7,172.2 100.7,136.2 87.9,136.2 87.9,127.1 123.5,127.1 123.5,136.2 110.6,136.2 		
			"/>
		<polygon class="st0" points="127.8,172.2 127.8,127.1 137.7,127.1 137.7,172.2 		"/>
		<polygon class="st0" points="164.8,172.2 154.9,172.2 154.9,136.2 142,136.2 142,127.1 177.7,127.1 177.7,136.2 164.8,136.2 		"/>
		<polygon class="st0" points="182,127.1 191.9,127.1 191.9,163.2 208.1,163.2 208.1,172.2 182,172.2 		"/>
		<polygon class="st0" points="240.5,172.2 214.4,172.2 214.4,127.1 240.5,127.1 240.5,136.2 224.3,136.2 224.3,145.1 239.8,145.1 
			239.8,154.1 224.3,154.1 224.3,163.2 240.5,163.2 		"/>
		<path class="st0" d="M261.2,163c7.6,0,12.8-5.9,12.8-13.4s-5.2-13.3-12.8-13.3h-3V163H261.2L261.2,163z M261.8,127.1
			c12.7,0,22.4,9.8,22.4,22.5c0,12.7-9.6,22.5-22.4,22.5h-13.4v-45L261.8,127.1L261.8,127.1z"/>
	</g>
	<path class="st0" d="M290.2,161.3c3.2,0,5.8,2.6,5.8,5.8s-2.6,5.8-5.8,5.8c-3.2,0-5.8-2.6-5.8-5.8
		C284.3,163.8,286.9,161.3,290.2,161.3L290.2,161.3z"/>
</g>
</svg>
