<?xml version="1.0" encoding="utf-8"?>
<!-- Generator: Adobe Illustrator 22.0.1, SVG Export Plug-In . SVG Version: 6.00 Build 0)  -->
<svg version="1.1" id="Layer_1" xmlns="http://www.w3.org/2000/svg" xmlns:xlink="http://www.w3.org/1999/xlink" x="0px" y="0px"
	 viewBox="0 0 300 300" style="enable-background:new 0 0 300 300;" xml:space="preserve">
<style type="text/css">
	.st0{fill:#AAAAAA;}
</style>
<g>
	<path class="st0" d="M274.8,76.1H25.4c-2.3,0-4.3,1.9-4.3,4.3v139.2c0,1.2,0.5,2.4,1.4,3.2s2.1,1.2,3.3,1l124.2-15l124.2,15h0.5
		c1,0,2-0.4,2.8-1.1c0.9-0.8,1.4-2,1.4-3.2V80.3C279.1,78,277.2,76.1,274.8,76.1z M270.6,214.7l-120-14.5h-0.5h-0.5l-120,14.5V84.6
		h241V214.7z"/>
	<path class="st0" d="M74.1,102.9c-3.7-3.1-8.6-4.3-13.6-4.3H48c-1.5,0-2.5-0.1-3.1,0.7c-0.5,0.6-0.6,1.6-0.6,3.1v79.7
		c0,2.7,0.7,2.7,6.3,2.7c5.7,0,6.9,0.1,6.9-2v-26.9c0-3.1,1-3.8,2.7-3.8c4.6,0,9.9-1,13.8-4.6c4.7-4.3,6.2-9.2,6.2-14.3v-16.1
		C80.1,111,78.3,106.4,74.1,102.9z M65.3,137.9c-1.4,1.6-3.1,2-4.4,2c-1.2,0-2.1,0-2.7-0.1c-0.9-0.4-0.7-1.4-0.7-2.6v-23.4
		c0-0.7,0-1.2,0.4-1.7c0.5-0.5,1.8-0.5,3.3-0.5c2,0,3.1,0.5,4.1,1.5c1.5,1.8,1.6,4.2,1.6,6.8v11.8C66.8,133.9,66.9,135.8,65.3,137.9
		z"/>
	<path class="st0" d="M101.3,100.7V168c0,1.6-0.1,3.7,0.7,4.3c0.6,0.4,2.1,0.5,3.3,0.5h11c1.6,0,1.7,0.6,1.7,5.8
		c0,5.9-0.1,6.3-1.6,6.3H92.8c-1.7,0-3.4,0-4.1-0.7c-0.7-0.9-0.6-2.7-0.6-4.3v-79.2c0-1.7,0.6-2,6.2-2
		C100.6,98.6,101.3,98.7,101.3,100.7z"/>
	<path class="st0" d="M140.6,171.8c3.9,0,4.6-3.3,4.6-4.9v-16.1c0-1.1-0.4-1.5-1.1-1.7c-1.2-0.4-2.7-0.4-3.3-0.7
		c-0.5-0.5-0.5-1.7-0.5-3.7c0-2.1,0-3.5,0.5-3.7c1.6-1.1,7-1.2,11.9-1.1c4.9,0.1,5.9,0.9,5.9,2.6v40c0,0.6,0,2-1,2.3
		c-0.7,0.4-1.7,0-2.6,0c-1.2,0-2.2-4.4-3.4-5.1c-1.4-0.4-2.5,5.2-11,5.2c-11.5,0-17.9-8.4-17.9-17.2v-51.6c0-8.5,6.2-17.4,17.9-17.4
		c12,0,18,8.9,18,17.4v6.7c0,1.1-1.1,1.6-7.4,1.6c-4.3,0-5.9,0.1-5.9-1.2c0-1.7-0.1-5.3-0.1-6.5c0-1.7-1.2-5.2-4.6-5.2
		c-3.7,0-4.7,3.9-4.7,7v46.4C135.9,168,136.3,171.8,140.6,171.8z"/>
	<path class="st0" d="M201.1,144.1c-2.3-3.1-6.3-3.3-6.3-3.8c0-0.4,3.8-1.1,6-4.4c1.6-2.2,2.1-4.6,2.1-8.1v-10.5
		c0-5.2-1.4-10.1-5.1-13.6c-3.7-3.6-9.1-5.1-14.4-5.1h-12.2c-1.6,0-2.5-0.2-3.2,0.7c-0.4,0.6-0.5,1.8-0.5,3.1v79.7
		c0,2.7,1,2.7,6,2.7c6.2,0,7.1,0,7.1-2.3v-34.2c0-1.7,0.5-1.6,4.8-1.6c3.1,0,4.6,3.4,4.6,7.8v28.3c0,2.2,0.5,2.1,6.4,2.1
		s6.8,0,6.8-2v-31C203.3,148.4,202.7,146.3,201.1,144.1z M189.8,128.2c0,1.2-0.1,3.1-1.7,4.8c-1.4,1.5-3.3,1.8-4.4,1.8
		c-1,0-1.7,0.1-2.2-0.2c-0.6-0.5-0.6-1.4-0.6-2.5v-18.4c0-0.6,0.1-1.1,0.4-1.6c0.5-0.6,1.4-0.6,2.5-0.6c2.8,0,3.6,0.5,4.4,1.5
		c1.6,1.8,1.7,4.2,1.7,6.8L189.8,128.2L189.8,128.2z"/>
	<path class="st0" d="M217.9,184.8c-6,0-5.9-0.2-5.9-2.1v-82c0-2.1,0.9-2,5.7-2c5.3,0,6.2,0.6,7.4,4.6c1.8,6.3,3.7,11.8,5.4,17.6
		c1.2,4.3,2.6,8.1,3.5,8.1s2.1-3.6,3.5-8.1c2-6.4,3.4-11.2,5.4-17.6c1.1-3.9,2-4.7,6.8-4.7c5.3,0,6.4,0.1,6.4,2.1v81.9
		c0,2,0.1,2.2-6.5,2.2c-6,0-6.4-0.2-6.4-2.1c0-17.2,0-39.5-0.4-49.3c-0.5-1.1-1.6-0.7-1.8,0.5c-1.5,6.9-3,12.6-4.2,16.8
		c-0.2,1.2-0.7,1.8-2.7,1.8s-2.3-0.6-2.7-1.7c-1-3.8-2.5-9.9-3.9-16.6c-0.2-1.2-1.7-1.6-2.2-0.6c-0.4,9.9-0.4,31.8-0.4,49
		C224.6,184.6,224.3,184.8,217.9,184.8z"/>
</g>
</svg>
