<?xml version="1.0" encoding="utf-8"?>
<!-- Generator: Adobe Illustrator 22.0.1, SVG Export Plug-In . SVG Version: 6.00 Build 0)  -->
<svg version="1.1" id="Layer_1" xmlns="http://www.w3.org/2000/svg" xmlns:xlink="http://www.w3.org/1999/xlink" x="0px" y="0px"
	 viewBox="0 0 300 300" style="enable-background:new 0 0 300 300;" xml:space="preserve">
<style type="text/css">
	.st0{fill:#AAAAAA;}
</style>
<g>
	<g>
		<path class="st0" d="M153.1,65.6c-0.6,0-1.2-0.2-1.7-0.6c-1.2-0.9-1.3-2.6-0.4-3.8c1.1-1.3,4.1-3.8,8.4-3.8c3.1,0,4.9,1.3,6,2.1
			c0.8,0.5,0.9,0.7,1.2,0.7c0.3,0,0.5-0.2,1.2-0.7c1.2-0.8,2.9-2.1,6-2.1c3.2,0,6.3,1.3,8.6,3.4c1.1,1,1.1,2.7,0.1,3.8
			c-1,1.1-2.7,1.1-3.8,0.1l-0.1-0.1c-0.7-0.6-2.4-1.9-4.9-1.9c-1.4,0-2,0.4-2.9,1.1c-1,0.7-2.3,1.7-4.4,1.7c-2.1,0-3.4-1-4.3-1.7
			c-0.8-0.7-1.5-1.1-2.9-1.1c-2.7,0-4.2,1.7-4.2,1.8C154.7,65.3,153.9,65.6,153.1,65.6z"/>
	</g>
	<path class="st0" d="M48.2,108.3H27.4V56.8h17.7c8.8,0,14.4,5.8,14.4,12.8c0,5.2-2.3,9.2-6.1,10.9c5.8,1.3,10.4,6,10.4,12.9
		C63.8,102.4,58,108.3,48.2,108.3z M42.6,65.7h-3.9v12h3.9c3.3,0,6-2.7,6-6C48.6,68.4,45.9,65.7,42.6,65.7z M45.9,87h-7.2v12.4h7.2
		c3.4,0,6.3-2.8,6.3-6.2C52.2,89.9,49.3,87,45.9,87z"/>
	<path class="st0" d="M105.1,93H79.2c0,3.9,2.7,8,7.2,8c4,0,6.5-2.7,6.5-5h11.6c-1.9,8.8-9.1,13.2-18,13.2
		c-11.5,0-19.5-6.8-19.5-17.4c0-10.4,8.2-17.5,19.5-17.5c10.2,0,18.6,6,18.6,16.7C105.2,91.6,105.1,92.3,105.1,93z M94.3,87.6
		c0,0-0.5-6.2-7.4-6.2c-7.1,0-7.5,6.2-7.5,6.2H94.3z"/>
	<polygon class="st0" points="121.7,108.3 115.4,124 127.2,124 133.2,108.3 145.9,74.9 134.4,74.9 126.4,98.7 118.5,74.9 
		107.1,74.9 119.8,108.3 	"/>
	<path class="st0" d="M185.9,91.6c0,10.7-8.4,17.4-19,17.4c-10.7,0-19.1-6.6-19.1-17.4c0-10.4,8.6-17.4,19.1-17.4
		C177.3,74.2,185.9,81.2,185.9,91.6z M174.6,91.7c0-4.2-1.8-8.6-7.7-8.6c-6,0-7.8,4.4-7.8,8.6c0,4.3,1.7,8.7,7.8,8.7
		C172.9,100.4,174.6,95.9,174.6,91.7z"/>
	<path class="st0" d="M227.2,108.3h-11.3V89.4c0-3.9-1.5-6-5-6c-3.5,0-6.4,3.8-6.4,8.3v16.6h-11.3V74.9h11.3V79
		c2.3-2.9,5.8-4.9,10.2-4.9c8.9,0,12.6,6.1,12.6,15.2L227.2,108.3L227.2,108.3z"/>
	<path class="st0" d="M272.6,108.3h-11.3v-4c-2.3,3.4-7.2,4.8-11.4,4.8c-9.5,0-16.6-8.1-16.6-17.4s7.1-17.5,16.6-17.5
		c4.3,0,8.5,1.2,11.4,4.9V56.8h11.3V108.3z M253.3,83.3c-4.5,0-8,3.9-8,8.3c0,4.4,3.4,8.3,8,8.3s8-3.9,8-8.3
		C261.3,87.2,257.9,83.3,253.3,83.3z"/>
	<g>
		<path class="st0" d="M51.2,167.7H39.9v-41.2H27.6v-10.3h35.9v10.3H51.3L51.2,167.7L51.2,167.7z"/>
		<path class="st0" d="M105,167.7H93.7v-18.9c0-3.9-1.5-6-5-6c-3.5,0-6.4,3.8-6.4,8.3v16.6H70.9v-51.5h11.3v22.2
			c2.3-2.9,5.8-4.9,10.2-4.9c8.9,0,12.6,6.1,12.6,15.2L105,167.7L105,167.7z"/>
		<path class="st0" d="M149,152.4h-25.9c0,3.9,2.7,8,7.2,8c4,0,6.5-2.7,6.5-5h11.6c-1.9,8.8-9.1,13.2-18,13.2
			c-11.5,0-19.5-6.8-19.5-17.4c0-10.4,8.2-17.5,19.5-17.5c10.2,0,18.6,6,18.6,16.7C149.1,150.9,149,151.8,149,152.4z M138.2,147.1
			c0,0-0.5-6.2-7.4-6.2c-7.1,0-7.5,6.2-7.5,6.2H138.2z"/>
	</g>
	<path class="st0" d="M58.2,227.4h-9.7l-20.8-51.5h12.3l10.6,29l2.8,8.1l2.8-8.1l10.7-29h12.3L58.2,227.4z"/>
	<path class="st0" d="M113.6,227.4h-11.3v-4c-2.3,3.4-7.2,4.8-11.4,4.8c-9.5,0-16.6-8.1-16.6-17.4c0-9.2,7.1-17.5,16.6-17.5
		c4.3,0,8.5,1.2,11.4,4.9v-4h11.3V227.4z M94.3,202.5c-4.5,0-8,3.9-8,8.3s3.4,8.3,8,8.3s8-3.9,8-8.3
		C102.2,206.4,98.8,202.5,94.3,202.5z"/>
	<path class="st0" d="M122.6,227.4v-51.5H134v51.5H122.6z"/>
	<path class="st0" d="M143.1,227.4v-51.5h11.3v51.5H143.1z"/>
	<path class="st0" d="M199.6,212.1h-25.9c0,3.9,2.7,8,7.2,8c4,0,6.5-2.7,6.5-5h11.6c-1.9,8.8-9.1,13.2-18,13.2
		c-11.5,0-19.5-6.8-19.5-17.4c0-10.4,8.2-17.5,19.5-17.5c10.2,0,18.6,6,18.6,16.7C199.7,210.7,199.6,211.5,199.6,212.1z
		 M188.8,206.7c0,0-0.5-6.2-7.4-6.2c-7.1,0-7.5,6.2-7.5,6.2H188.8z"/>
	<polygon class="st0" points="216.2,227.4 209.9,243.2 221.7,243.2 227.7,227.4 240.4,194.1 228.9,194.1 220.9,217.9 213,194.1 
		201.5,194.1 214.3,227.4 	"/>
</g>
</svg>
