<?xml version="1.0" encoding="utf-8"?>
<!-- Generator: Adobe Illustrator 22.0.1, SVG Export Plug-In . SVG Version: 6.00 Build 0)  -->
<svg version="1.1" id="Layer_1" xmlns="http://www.w3.org/2000/svg" xmlns:xlink="http://www.w3.org/1999/xlink" x="0px" y="0px"
	 viewBox="0 0 300 300" style="enable-background:new 0 0 300 300;" xml:space="preserve">
<style type="text/css">
	.st0{fill:#AAAAAA;}
</style>
<g>
	<path class="st0" d="M81.2,233.8c0-0.4,0.3-0.7,0.7-0.7h3.6c0.4,0,0.7,0.3,0.7,0.7v8.1l6.9-8.5c0.1-0.2,0.4-0.3,0.6-0.3h3.9
		c0.6,0,0.9,0.7,0.6,1.1l-7.2,9l7.9,10.2c0.3,0.5,0,1.1-0.6,1.1H94c-0.2,0-0.5-0.1-0.6-0.2l-7.1-9.7v9.2c0,0.4-0.3,0.7-0.7,0.7h-3.6
		c-0.4,0-0.7-0.3-0.7-0.7v-20H81.2z"/>
	<path class="st0" d="M113.8,250.1c3.4,0,6.2-2.8,6.2-6.1c0-3.4-2.8-6.2-6.2-6.2c-3.4,0-6.1,2.8-6.1,6.2
		C107.8,247.3,110.5,250.1,113.8,250.1L113.8,250.1z M113.8,232.8c6.2,0,11.1,5,11.1,11.1c0,6.2-4.9,11.1-11.1,11.1
		s-11.1-4.9-11.1-11.1C102.8,237.8,107.8,232.8,113.8,232.8L113.8,232.8z"/>
	<path class="st0" d="M131.6,233.7c0-0.3,0.2-0.6,0.6-0.6h3.7c0.3,0,0.6,0.3,0.6,0.6v16.5h7.3c0.3,0,0.6,0.3,0.6,0.6v3.4
		c0,0.3-0.2,0.6-0.6,0.6h-11.6c-0.3,0-0.6-0.3-0.6-0.6V233.7L131.6,233.7z"/>
	<path class="st0" d="M159.4,250.1c3.4,0,6.2-2.8,6.2-6.1c0-3.4-2.8-6.2-6.2-6.2s-6.1,2.8-6.1,6.2
		C153.2,247.3,156.1,250.1,159.4,250.1L159.4,250.1z M159.4,232.8c6.2,0,11.1,5,11.1,11.1c0,6.2-4.9,11.1-11.1,11.1
		c-6.2,0-11.1-4.9-11.1-11.1C148.3,237.8,153.2,232.8,159.4,232.8L159.4,232.8z"/>
	<path class="st0" d="M176.8,233.7c0-0.3,0.3-0.6,0.6-0.6h3.8c0.3,0,0.6,0.3,0.6,0.6v12.5c0,2.2,1.6,3.9,3.8,3.9s3.9-1.7,3.9-3.9
		v-12.5c0-0.3,0.2-0.6,0.6-0.6h3.8c0.3,0,0.6,0.3,0.6,0.6v12.7c0,4.7-3.9,8.6-8.8,8.6c-4.8,0-8.8-3.9-8.8-8.6v-12.7H176.8z"/>
	<g>
		<path class="st0" d="M211.4,242.3c1.3,0,2.3-1.2,2.3-2.5s-1.1-2.3-2.3-2.3h-4.5v4.8H211.4L211.4,242.3z M202.1,233.7
			c0-0.3,0.2-0.6,0.6-0.6h9.2c3.7,0,6.7,3,6.7,6.7c0,2.8-1.9,5.1-4.6,6.2l4.2,7.8c0.2,0.4,0,0.9-0.5,0.9h-4.1
			c-0.2,0-0.4-0.2-0.5-0.3l-4.1-8.2h-2v7.9c0,0.3-0.3,0.6-0.6,0.6h-3.7c-0.3,0-0.6-0.3-0.6-0.6L202.1,233.7L202.1,233.7z"/>
		<path class="st0" d="M141.4,115c-2.5-1.1-4.7-2.7-6.7-4.6l-28.8-28.9c-7.7-7.7-8.8-20.1-2-28.6c8-10,22.7-10.6,31.5-1.8l14.4,14.4
			c0,0,0,0,0.1,0l14-14c7.7-7.7,20.1-8.8,28.6-2c10,8,10.6,22.7,1.8,31.5L165,110.4C158.9,116.5,149.8,118.5,141.4,115L141.4,115z"
			/>
		<path class="st0" d="M214.8,181.6c-5.4,0-10.8-2.1-15-6.2L170.4,146c-8.3-8.3-8.3-21.7,0-29.9l29-29c7.7-7.7,20.1-8.8,28.6-2
			c10,8,10.6,22.7,1.8,31.5L215.3,131c0,0,0,0,0,0.1l14,14c7.6,7.6,8.8,19.7,2.2,28.2C227.3,178.8,221.1,181.6,214.8,181.6
			L214.8,181.6z"/>
		<path class="st0" d="M179.3,217c-5.4,0-10.8-2.1-15-6.2l-14.4-14.4c0,0,0,0-0.1,0l-14,14c-7.7,7.7-20.1,8.8-28.6,2
			c-10-8-10.6-22.7-1.8-31.5l29.2-29.2c1.9-1.9,4.2-3.6,6.7-4.6c8.3-3.6,17.5-1.5,23.5,4.4l29,29c7.6,7.6,8.8,19.7,2.2,28.2
			C191.9,214.2,185.6,217,179.3,217L179.3,217z"/>
		<path class="st0" d="M85,181.6c-5.4,0-10.9-2.1-15-6.2c-8.3-8.3-7.8-22,0.5-30.4l14-14c0,0,0,0,0-0.1l-14.4-14.4
			c-8.8-8.8-8.2-23.4,1.8-31.5c8.5-6.8,20.9-5.7,28.6,2l29,29c8.3,8.3,8.3,21.7,0,29.9l-29.4,29.4C95.9,179.5,90.5,181.6,85,181.6
			L85,181.6z"/>
	</g>
</g>
</svg>
