<?xml version="1.0" encoding="utf-8"?>
<!-- Generator: Adobe Illustrator 22.0.1, SVG Export Plug-In . SVG Version: 6.00 Build 0)  -->
<svg version="1.1" id="Layer_1" xmlns="http://www.w3.org/2000/svg" xmlns:xlink="http://www.w3.org/1999/xlink" x="0px" y="0px"
	 viewBox="0 0 300 300" style="enable-background:new 0 0 300 300;" xml:space="preserve">
<style type="text/css">
	.st0{fill:#AAAAAA;}
</style>
<g>
	<g>
		<path class="st0" d="M37.3,154.4v-10.3H46l-4.1,15.4L37.3,154.4L37.3,154.4z M37.3,155.7l4.3,4.8l-4.3,16V155.7L37.3,155.7z
			 M36.4,154.8v21.9l-8.3-31.2L36.4,154.8L36.4,154.8z M26.6,132.8l5.3,3l-4.8,7.2l-7.5-8.1L26.6,132.8L26.6,132.8z M25.6,132.2
			l-6.6,2L7.7,122L25.6,132.2L25.6,132.2z M26.7,131.8L8.9,121.6l26.5,7.6L26.7,131.8L26.7,131.8z M49.9,130.2l-8.6,4.9l-3.8-5.6
			l13.6-3.9L49.9,130.2L49.9,130.2z M51,129.6l1.2-4.3l12.6-3.6L51,129.6L51,129.6z M50.6,130.8l15.2-8.7l-18.3,20L50.6,130.8
			L50.6,130.8z M37.3,138.9l7.7,4.4h-7.7V138.9L37.3,138.9z M36.4,144.2v9.3l-8.2-9.3H36.4L36.4,144.2z M28.8,143.3l7.6-4.4v4.4
			H28.8L28.8,143.3z M36,138.2l-7.4,4.3l4.1-6.2L36,138.2L36,138.2z M32.4,135.1l-4.6-2.7l8-2.4L32.4,135.1L32.4,135.1z M36.4,130.7
			v6.7l-3.2-1.8L36.4,130.7L36.4,130.7z M37.3,137.4v-6.8l3.3,4.9L37.3,137.4L37.3,137.4z M45.2,142.4l-7.4-4.2l3.3-1.9L45.2,142.4
			L45.2,142.4z M41.8,135.8l7.7-4.4l-3.1,11.3L41.8,135.8L41.8,135.8z M68.4,120.6c0.1-0.1,0.2-0.4,0-0.5c-0.1-0.2-0.3-0.2-0.5-0.2
			l-31.1,8.9l-31.3-9c-0.2-0.1-0.4,0-0.5,0.2c0,0.2,0,0.4,0.2,0.5l21.6,23.4l9.6,36.1c0.1,0.2,0.2,0.3,0.4,0.3l0,0
			c0.2,0,0.4-0.1,0.4-0.3l9.7-36.1c0,0,0,0,0-0.1L68.4,120.6L68.4,120.6z"/>
	</g>
	<path class="st0" d="M80.1,126.7c0-0.2,0.3-0.4,0.5-0.4H81c0.1,0,0.4,0.1,0.5,0.3l6.2,11.6h0.1l6.2-11.7c0.1-0.2,0.3-0.3,0.5-0.3
		h0.4c0.2,0,0.5,0.2,0.5,0.4l3,18.1c0.1,0.3-0.2,0.6-0.5,0.6h-3.2c-0.2,0-0.5-0.2-0.5-0.4l-1.2-8.3h-0.1l-4.5,8.7
		c-0.1,0.2-0.3,0.3-0.5,0.3h-0.5c-0.2,0-0.4-0.1-0.5-0.3l-4.5-8.7h-0.1l-1.2,8.3c0,0.2-0.2,0.4-0.5,0.4h-3.2c-0.3,0-0.6-0.2-0.5-0.6
		L80.1,126.7L80.1,126.7z"/>
	<path class="st0" d="M101.8,127.1c0-0.3,0.2-0.5,0.5-0.5h11.1c0.3,0,0.5,0.2,0.5,0.5v2.9c0,0.3-0.2,0.5-0.5,0.5H106v3.3h6.1
		c0.3,0,0.5,0.2,0.5,0.5v2.9c0,0.3-0.2,0.5-0.5,0.5H106v3.6h7.4c0.3,0,0.5,0.2,0.5,0.5v2.9c0,0.3-0.2,0.5-0.5,0.5h-11.1
		c-0.3,0-0.5-0.2-0.5-0.5V127.1L101.8,127.1z"/>
	<path class="st0" d="M117.6,127.1c0-0.3,0.2-0.5,0.5-0.5h3.2c0.3,0,0.5,0.2,0.5,0.5v14.4h6.4c0.3,0,0.5,0.2,0.5,0.5v2.9
		c0,0.3-0.2,0.5-0.5,0.5h-10.1c-0.3,0-0.5-0.2-0.5-0.5V127.1L117.6,127.1z"/>
	<path class="st0" d="M138,141.5c1,0,1.9-0.9,1.9-2s-1.2-1.9-2.2-1.9h-2.2v3.8L138,141.5L138,141.5z M137.6,134.2
		c1,0,1.9-0.9,1.9-1.9c0-1.1-0.9-1.8-1.9-1.8h-2.1v3.8h2.1V134.2z M131.3,127.1c0-0.3,0.2-0.5,0.5-0.5h6.3c3.2,0,5.8,2.2,5.8,5
		c0,2.1-1.9,3.6-3.1,4.2c1.4,0.6,3.6,1.9,3.6,4.4c0,3-2.7,5.2-5.9,5.2h-6.7c-0.3,0-0.5-0.2-0.5-0.5L131.3,127.1L131.3,127.1z"/>
	<path class="st0" d="M156.1,141.3c3,0,5.4-2.4,5.4-5.4s-2.4-5.4-5.4-5.4c-2.9,0-5.4,2.4-5.4,5.4
		C150.7,138.9,153.1,141.3,156.1,141.3L156.1,141.3z M156.1,126.3c5.4,0,9.7,4.3,9.7,9.7s-4.3,9.7-9.7,9.7s-9.7-4.3-9.7-9.7
		C146.4,130.6,150.7,126.3,156.1,126.3L156.1,126.3z"/>
	<path class="st0" d="M168.7,127.1c0-0.3,0.2-0.5,0.5-0.5h3.3c0.3,0,0.5,0.2,0.5,0.5V138c0,1.9,1.4,3.4,3.3,3.4
		c1.9,0,3.4-1.5,3.4-3.4v-10.9c0-0.3,0.2-0.5,0.5-0.5h3.3c0.3,0,0.5,0.2,0.5,0.5v11.1c0,4.1-3.4,7.5-7.7,7.5c-4.2,0-7.6-3.4-7.6-7.5
		V127.1L168.7,127.1z"/>
	<path class="st0" d="M196.6,134.6c1.1,0,2-1,2-2.2c0-1.1-0.9-2-2-2h-4v4.2H196.6L196.6,134.6z M188.4,127.1c0-0.3,0.2-0.5,0.5-0.5
		h8c3.2,0,5.9,2.6,5.9,5.8c0,2.5-1.6,4.5-4,5.4l3.7,6.8c0.2,0.3,0,0.8-0.5,0.8h-3.6c-0.2,0-0.4-0.1-0.4-0.2l-3.6-7.1h-1.9v6.9
		c0,0.3-0.2,0.5-0.5,0.5h-3.2c-0.3,0-0.5-0.2-0.5-0.5v-17.9H188.4z"/>
	<path class="st0" d="M206.4,126.8c0-0.3,0.2-0.5,0.5-0.5h0.7l10.7,10.3l0,0v-9.5c0-0.3,0.2-0.5,0.5-0.5h3.2c0.3,0,0.5,0.2,0.5,0.5
		v18.1c0,0.3-0.2,0.5-0.5,0.5h-0.4c-0.1,0-0.3-0.1-0.3-0.1l-10.6-10.7l0,0v10c0,0.3-0.2,0.5-0.5,0.5H207c-0.3,0-0.5-0.2-0.5-0.5
		L206.4,126.8L206.4,126.8z"/>
	<path class="st0" d="M227.2,127.1c0-0.3,0.2-0.5,0.5-0.5h11.1c0.3,0,0.5,0.2,0.5,0.5v2.9c0,0.3-0.2,0.5-0.5,0.5h-7.4v3.3h6.1
		c0.3,0,0.5,0.2,0.5,0.5v2.9c0,0.3-0.2,0.5-0.5,0.5h-6.1v3.6h7.4c0.3,0,0.5,0.2,0.5,0.5v2.9c0,0.3-0.2,0.5-0.5,0.5h-11.1
		c-0.3,0-0.5-0.2-0.5-0.5V127.1L227.2,127.1z"/>
	<path class="st0" d="M77.2,171.6l1.3-2.2c0.2-0.3,0.7-0.3,0.9-0.2c0.1,0.1,2,1.5,3.8,1.5c1.1,0,1.9-0.7,1.9-1.6
		c0-1.1-0.9-2-2.8-2.7c-2.3-0.9-5.2-2.7-5.2-5.9c0-2.7,2.1-5.4,6.2-5.4c2.8,0,4.9,1.4,5.8,2c0.3,0.2,0.3,0.7,0.2,0.9l-1.4,2.1
		c-0.2,0.3-0.7,0.5-0.9,0.3c-0.2-0.1-2.2-1.6-3.8-1.6c-1,0-1.7,0.6-1.7,1.4c0,1,0.8,1.7,2.9,2.6c2.1,0.8,5.4,2.5,5.4,6.1
		c0,2.8-2.4,5.6-6.3,5.6c-3.5,0-5.4-1.5-6.1-2.1C77,172.1,76.9,172,77.2,171.6L77.2,171.6z"/>
	<path class="st0" d="M99.7,163.4c1.2,0,2.1-0.9,2.1-2.1c0-1.1-1-2-2.1-2h-2.6v4.1H99.7L99.7,163.4z M93,155.9
		c0-0.3,0.2-0.5,0.5-0.5h6.5c3.3,0,6,2.7,6,5.9c0,3.3-2.7,6.1-6,6.1h-2.8v6.3c0,0.3-0.2,0.5-0.5,0.5h-3.2c-0.3,0-0.5-0.2-0.5-0.5
		V155.9L93,155.9z"/>
	<path class="st0" d="M116.4,167.7l-2-4.4l0,0l-2,4.4l-1.6,3.7l-1,2.2c-0.1,0.3-0.4,0.6-1,0.6h-3c-0.4,0-0.6-0.3-0.5-0.7l8.4-18.1
		c0.1-0.2,0.3-0.3,0.5-0.3h0.3c0.2,0,0.4,0.1,0.5,0.3l8.4,18.1c0.2,0.3-0.1,0.7-0.5,0.7h-3c-0.5,0-0.7-0.2-0.9-0.7l-1-2.1"/>
	<path class="st0" d="M133.7,155.1c2.7,0,4.7,0.8,6.5,2.5c0.2,0.2,0.2,0.5,0,0.8l-2.1,2.2c-0.2,0.2-0.5,0.2-0.7,0
		c-1-0.9-2.3-1.4-3.6-1.4c-3,0-5.3,2.5-5.3,5.5s2.3,5.5,5.3,5.5c1.3,0,2.6-0.5,3.6-1.3c0.2-0.2,0.5-0.2,0.7,0l2.1,2.2
		c0.2,0.2,0.2,0.5,0,0.7c-1.8,1.8-4.1,2.6-6.5,2.6c-5.4,0-9.7-4.3-9.7-9.7C124,159.4,128.3,155.1,133.7,155.1L133.7,155.1z"/>
	<path class="st0" d="M143.5,155.9c0-0.3,0.2-0.5,0.5-0.5h11.1c0.3,0,0.5,0.2,0.5,0.5v2.9c0,0.3-0.2,0.5-0.5,0.5h-7.4v3.3h6.1
		c0.3,0,0.5,0.2,0.5,0.5v2.9c0,0.3-0.2,0.5-0.5,0.5h-6.1v3.6h7.4c0.3,0,0.5,0.2,0.5,0.5v2.9c0,0.3-0.2,0.5-0.5,0.5H144
		c-0.3,0-0.5-0.2-0.5-0.5V155.9L143.5,155.9z"/>
	<path class="st0" d="M171.9,163.4c1.2,0,2.1-0.9,2.1-2.1c0-1.1-1-2-2.1-2h-2.6v4.1H171.9L171.9,163.4z M165.2,155.9
		c0-0.3,0.2-0.5,0.5-0.5h6.5c3.3,0,6,2.7,6,5.9c0,3.3-2.7,6.1-6,6.1h-2.8v6.3c0,0.3-0.2,0.5-0.5,0.5h-3.2c-0.3,0-0.5-0.2-0.5-0.5
		V155.9L165.2,155.9z"/>
	<path class="st0" d="M189.1,163.4c1.1,0,2-1,2-2.2c0-1.1-0.9-2-2-2h-4v4.2H189.1L189.1,163.4z M180.9,155.9c0-0.3,0.2-0.5,0.5-0.5
		h8c3.2,0,5.9,2.6,5.9,5.8c0,2.5-1.6,4.5-4,5.4l3.7,6.8c0.2,0.3,0,0.8-0.5,0.8H191c-0.2,0-0.4-0.1-0.4-0.2l-3.6-7.1h-1.9v6.9
		c0,0.3-0.2,0.5-0.5,0.5h-3.2c-0.3,0-0.5-0.2-0.5-0.5L180.9,155.9L180.9,155.9z"/>
	<path class="st0" d="M207.2,170.1c3,0,5.4-2.4,5.4-5.4s-2.4-5.4-5.4-5.4c-2.9,0-5.4,2.4-5.4,5.4
		C201.9,167.7,204.3,170.1,207.2,170.1L207.2,170.1z M207.2,155.1c5.4,0,9.7,4.3,9.7,9.7s-4.3,9.7-9.7,9.7s-9.7-4.3-9.7-9.7
		C197.6,159.4,201.8,155.1,207.2,155.1L207.2,155.1z"/>
	<path class="st0" d="M228.4,155.1c2.3,0,4.7,0.9,6.6,2.5c0.2,0.2,0.3,0.5,0.1,0.7l-2.1,2.3c-0.2,0.2-0.5,0.2-0.7,0
		c-1-0.9-2.2-1.3-3.5-1.3c-2.9,0-5.3,2.5-5.3,5.4s2.4,5.4,5.3,5.4c0.8,0,1.6-0.1,2.4-0.4v-1.6h-1.7c-0.3,0-0.5-0.2-0.5-0.5v-2.7
		c0-0.3,0.2-0.5,0.5-0.5h5.4c0.3,0,0.5,0.2,0.5,0.5v7.2c0,0.1-0.1,0.3-0.2,0.4c0,0-2.8,1.7-6.7,1.7c-5.4,0-9.7-4.2-9.7-9.6
		C218.8,159.4,223.1,155.1,228.4,155.1L228.4,155.1z"/>
	<path class="st0" d="M247.2,163.4c1.1,0,2-1,2-2.2c0-1.1-0.9-2-2-2h-4v4.2H247.2L247.2,163.4z M239,155.9c0-0.3,0.2-0.5,0.5-0.5h8
		c3.2,0,5.9,2.6,5.9,5.8c0,2.5-1.6,4.5-4,5.4l3.7,6.8c0.2,0.3,0,0.8-0.5,0.8H249c-0.2,0-0.4-0.1-0.4-0.2l-3.6-7.1h-1.9v6.9
		c0,0.3-0.2,0.5-0.5,0.5h-3.2c-0.3,0-0.5-0.2-0.5-0.5v-17.9H239z"/>
	<g>
		<path class="st0" d="M265.7,167.7l-2-4.4l0,0l-2,4.4l-1.6,3.7l-1,2.2c-0.1,0.3-0.4,0.6-1,0.6h-3c-0.4,0-0.6-0.3-0.5-0.7l8.4-18.1
			c0.1-0.2,0.3-0.3,0.5-0.3h0.3c0.2,0,0.4,0.1,0.5,0.3l8.4,18.1c0.2,0.3-0.1,0.7-0.5,0.7h-3c-0.5,0-0.7-0.2-0.9-0.7l-1-2.1"/>
		<path class="st0" d="M276.7,155.5c0-0.2,0.3-0.4,0.5-0.4h0.4c0.1,0,0.4,0.1,0.5,0.3l6.2,11.6h0.1l6.2-11.6
			c0.1-0.2,0.3-0.3,0.5-0.3h0.4c0.2,0,0.5,0.2,0.5,0.4l3,18.1c0.1,0.3-0.2,0.6-0.5,0.6h-3.2c-0.2,0-0.5-0.2-0.5-0.4l-1.2-8.3h-0.1
			l-4.5,8.7c-0.1,0.2-0.3,0.3-0.5,0.3H284c-0.2,0-0.4-0.1-0.5-0.3l-4.5-8.7l0,0l-1.2,8.3c0,0.2-0.2,0.4-0.5,0.4h-3.2
			c-0.3,0-0.6-0.2-0.5-0.6L276.7,155.5L276.7,155.5z"/>
	</g>
	<polyline class="st0" points="117.7,174 114.3,170.6 111,174 	"/>
	<polyline class="st0" points="266.9,174 263.6,170.6 260.2,174 	"/>
</g>
</svg>
