<?xml version="1.0" encoding="utf-8"?>
<!-- Generator: Adobe Illustrator 22.0.1, SVG Export Plug-In . SVG Version: 6.00 Build 0)  -->
<svg version="1.1" id="Layer_1" xmlns="http://www.w3.org/2000/svg" xmlns:xlink="http://www.w3.org/1999/xlink" x="0px" y="0px"
	 viewBox="0 0 300 300" style="enable-background:new 0 0 300 300;" xml:space="preserve">
<style type="text/css">
	.st0{fill:#AAAAAA;}
</style>
<g>
	<g>
		<path class="st0" d="M250.4,214.5v-27.3l13.3,27.3v14.1h0.9h10.1h3v-2.3c0,0-3-0.1-3-2.9c0-0.1,0-0.2,0-0.3v-7.2v-55.7
			c0-2.2,2.9-2.3,2.9-2.3v-2.3H276h-1.2h-11.1h-1.2h-1.7v2.3c0,0,2.9,0,2.9,2.2v43.1l-13.3-27.6v-25.5c0-2.3,3-2.5,3-2.5v-2.3h-1.7
			h-1.3h-11.1h-1.2h-1.7v2.3c0,0,0,0,0.1,0c1.6,0.1,2.8,1.5,2.8,3.1v66.2c0,2.8-3,2.9-3,2.9v2.3h1.9h1.1h11.1h1.1h1.9v-2.3
			c0,0-3-0.1-3-2.9L250.4,214.5z"/>
		<path class="st0" d="M119.6,209.5l-5.2-53.4c0-0.3,0-0.3-0.1-0.6c-0.1-2.9,3.1-2.9,3.1-2.9v-2.3h-11.9h-3.3H90.3v2.3
			c0,0,3.1,0.3,3,2.4L87,220.6c-0.2,1.8-2.9,2-2.9,2v2.3l0,0h2.4h10.7h3.3l0,0v-2.3c0,0-3.1-0.2-2.8-3.1l0,0l1.6-18.5h8.7l0.7,7.8
			c0,0.1,0,0.3,0,0.5c0,2.9-3,2.9-3,2.9v2.3h1.7h1.9H120h0.9h1.7v-2.3C122.7,212.2,120,212.1,119.6,209.5z M100,195.6l2.4-38.6
			c0.2-1.6,2.5-1.6,2.6,0l2.4,38.6H100z"/>
		<path class="st0" d="M216.4,78.3h-0.8h-8.8h-0.9H203v2.2c0,0,2.9,0.8,2.9,2.9c0,11.7,0,49.4,0,54.2c0,1.5-0.3,2.7-0.7,3.8
			c-1.4,3.4-6.2,3.4-7.6,0c-0.4-1-0.7-2.3-0.7-3.8c0-4.8,0-29.8,0-41.8c0-2.2,3-2.5,3-2.5v-2.2h-3H196h-8.8h-0.9h-2.9v2.2
			c0,0,2.9,0,2.9,2.3v42.1c0,0,0,14.2,15.1,14.2l0,0l0,0l0,0l0,0c15.1,0,15.1-14.2,15.1-14.2V83.9c0-0.1,0-0.2,0-0.4
			c0-2.9,3-2.9,3-2.9v-2.2h-3.1V78.3z"/>
		<path class="st0" d="M116.6,86.1H98.1h-1.2h-11h-3v2.3c0,0,2.6,0.1,3,2.4v43.5c0,2.8-3,2.9-3,2.9v2.3h3H97h1.1h18.6v-3.2L107,122
			h0.1c1.4,0,2.6-1.2,2.6-2.6s-1.2-2.6-2.6-2.6s-2.6,1.2-2.6,2.6v0.1h-0.1v8.9c0,0-0.1,5.7-4,5.7c-4,0-4.1-4.8-4.1-4.8v-13h2.2
			c2.2,0.4,2.3,2.9,2.3,2.9h2.3v-3.5v-6.5v-3.5h-2.3c0,0-0.1,2.8-2.7,3h-1.8V96.2c0,0,0.3-4.6,4.2-4.6c4,0,3.9,5.6,3.9,5.6v8.6
			c0,0.1,0-0.1,0-0.1c0,1.4,1.2,2.9,2.6,2.9s2.6-1.2,2.6-2.6s-1.2-2.6-2.6-2.6l9.6-14.1V86.1z"/>
		<path class="st0" d="M288,86.2h-18.5h-1.2h-11.1h-3v2.3c0,0,3,0.1,3,2.4v56.5c0,2.8-3,2.9-3,2.9v2.3h3h11.1h1.1H288v-3.2
			l-9.7-17.7h0.1c1.4,0,2.6-1.2,2.6-2.6c0-1.4-1.2-2.6-2.6-2.6s-2.6,1.2-2.6,2.6v0.1h-0.1v12.3c0,0-0.1,5.7-4.1,5.7
			s-4.1-4.8-4.1-4.8v-19.2h2.2c2.2,0.4,2.3,2.9,2.3,2.9h2.3v-3.5v-6.5v-3.5H272c0,0-0.1,2.8-2.7,3h-1.8V96.3c0,0,0.2-4.6,4.2-4.6
			s4,5.6,4,5.6v12c0,0.1,0,0.2,0,0.3c0,1.4,1.2,2.6,2.6,2.6s2.6-1.2,2.6-2.6s-1.2-2.6-2.6-2.6l9.6-17.6v-3.2H288z"/>
		<path class="st0" d="M234.7,155.1h-18.5H215h-11h-3v2.3c0,0,3,0.1,3,2.4v50.6c0,2.8-3,2.9-3,2.9v2.3h3h11h1.1h18.6v-3.2l-9.7-17.7
			h0.1c1.4,0,2.6-1.2,2.6-2.6s-1.2-2.6-2.6-2.6c-1.4,0-2.6,1.2-2.6,2.6v0.1h-0.1v12.3c0,0-0.1,5.7-4.1,5.7s-4.1-4.8-4.1-4.8v-16.3
			h2.2c2.2,0.4,2.3,2.9,2.3,2.9h2.3v-3.5V182v-3.5h-2.3c0,0-0.1,2.8-2.7,3h-1.8v-16.2c0,0,0.3-4.6,4.3-4.6s3.9,5.6,3.9,5.6v12
			c0,0.1,0,0.2,0,0.3c0,1.4,1.2,2.6,2.6,2.6c1.4,0,2.6-1.2,2.6-2.6c0-1.4-1.2-2.6-2.6-2.6l9.6-17.6L234.7,155.1L234.7,155.1z"/>
		<path class="st0" d="M249,136.9l-6.7-19.5c0,0,7.3-3.5,7.3-14.9s-8.5-13.9-10.6-14.1c-2.1-0.3-6.3,0.1-7.9,2.3v-4.6h-0.4h-8.8
			h-2.5v2c0,0,0,0,0.1,0c1.4,0.1,2.4,1.3,2.4,2.7v56.5c0,0.1,0,0.1,0,0.2c0,2.5-2.6,2.5-2.6,2.5v1.9h2.6h0.7h7.6h0.7h2.6v-2
			c0,0-2.5,0-2.6-2.4V99.3c0-1.4,0-3.2,0.9-4.2c0.7-0.9,1.9-1.6,3.3-1.6c1.8,0,3,0.8,3.6,1.8c0.7,1,0.7,2.4,0.7,3.8v16.5
			c-1-1.1-2.6-1.7-4.3-1.2c-1.5,0.4-2.6,1.5-3.1,3c-0.7,2.6,1,5,3.3,5.5l4.7,14.9c0.5,2.1-3.8,2.5-3.8,2.5v1.9h2.3h3h9.1l0,0h2.5
			v-1.9l0,0C251.3,140.1,249.6,138.8,249,136.9z"/>
		<path class="st0" d="M132.2,147.1L132.2,147.1v-2.3c0,0-3.1-0.2-2.8-3.1v-0.4l1-11.4h8.7l2.7,21.3c0,0.1,0,0.3,0,0.5
			c0,1.2-0.5,1.9-1.2,2.3c1.8-0.5,3.7-0.6,5-0.4c1.1,0.1,4.1,0.4,6.7,2.7h0.8h0.9h1.7v-2.2c0,0-2.7-0.4-3.1-3l-7.2-51.3
			c0-0.2-0.1-0.4,0-0.6c0.1-2.9,3.1-2.9,3.1-2.9V94h-27.1v2.1c0,0,3.2,0.2,3,2.4l-5.6,44.4c-0.6,1.9-2.9,2-2.9,2v2.3l0,0h2.4H129
			h3.2V147.1z M123.7,155v2.1c0,0,2.8,0.1,2.8,1.9v57.2c0,0.1,0,0.2,0,0.3c0,2.7-2.9,2.8-2.9,2.8v2.1h2.9h0.8h8.4h0.8h2.9v-2.1
			c0,0-2.8-0.1-2.9-2.7v-47.5c0-1.5,0-3.5,1-4.7c0.8-1,2.1-1.8,3.7-1.8c2,0,3.3,0.9,4,2s0.8,2.6,0.8,4.2V187
			c-1.1-1.2-2.9-1.8-4.7-1.4c-1.7,0.4-3,1.8-3.4,3.5c-0.6,2.8,1.2,5.3,3.7,5.8l4,16.5c0.6,2.4-4.2,2.8-4.2,2.8v2.1h2.5h3.4h10l0,0
			h2.8v-2.1l0,0c-2.2-0.2-4-1.6-4.7-3.7l-6.2-21.5c0,0,8.1-3.9,8.1-16.4s-9.4-15.3-11.7-15.6s-6.9,0.1-8.7,2.5V155h-0.5
			 M133.2,100.8c0.2-1.8,2.8-1.8,3,0l2.2,23.7H131L133.2,100.8z"/>
		<path class="st0" d="M40,94.8"/>
		<path class="st0" d="M125.5,58.1h-2.6c-1.3,0-2.4,0.2-3,0.7s-1.6,1.1-2,2.6c0,0.2-0.1,0.3-0.3,2.1h-2.2v-9.1h26.5v9.1h-2.2
			c-0.4-3.2-0.6-3.5-1.1-4.2c-0.8-1.1-2.6-1.2-4.3-1.2h-2.7v24.1c0,1.9,0.2,4.4,0.6,5.1c0.4,0.8,1.7,1.1,3,1.1h0.7v2.3h-14.6v-2.3
			h0.6c1.3,0,2.6-0.4,3-1.2c0.4-0.8,0.6-3.2,0.6-5.1C125.5,82.1,125.5,58.1,125.5,58.1z"/>
		<path class="st0" d="M177.3,84.2c-0.3,0.6-1,0.9-2,0.9H175v1.2c1,0.4,2.5,1.3,3,1.7h13.7v-7h-1.6c0,4.4-3.4,4.2-3.4,4.2
			c-0.2,0-0.4,0-0.6,0c-1,0-1.3-0.2-1.8-0.5s-0.8-0.7-0.9-1.2c-0.1-0.5-0.2-2.2-0.2-3.8v-3.3h1c1,0,1.7-0.1,2,0.5
			c0.2,0.4,0.2,0.9,0.2,1.7c0,0.1,0,0.2,0,0.5h1.7V71h-1.7c0,1.4-0.2,1.6-0.4,2c-0.4,0.5-1,0.6-1.9,0.6h-0.9v-8.7h2.8
			c0.9,0,1.5,0.1,1.9,0.4s0.7,0.5,1.2,1.4c0.4,0.7,0.4,0.9,0.7,2.4h1.7v-7H175v2.6h0.4c1,0,1.7,0.3,2,0.9s0.5,1.6,0.5,2.4v12.5
			C177.8,82.5,177.7,83.6,177.3,84.2z"/>
		<path class="st0" d="M200.1,189.4c0-4.6,0-37.2-23.4-38.7c-2.6,1.3-5.9,1.9-8.7,1.9c-0.2,0-0.8,0-1,0c-2.5-0.1-4.9-0.8-7.1-2l0,0
			v3.7c0,0,0.1,0,0.2,0c1.5,0.2,2.7,1.5,2.7,3v69.2c0,1.6-2.8,1.8-2.8,1.8v2.3h2.8H174h1.3c24.1-1,24.8-34.6,24.8-39.4
			C200.1,190.7,200.1,189.9,200.1,189.4z M173,225.2v-69.8c4.4,0,16.3,6.2,16.3,35.5C189.2,221.8,178,225.2,173,225.2z"/>
		<line class="st0" x1="121.5" y1="93.9" x2="148.7" y2="93.9"/>
		<g>
			<path class="st0" d="M27.5,89.6v49.2l5.5,2.3c23.2,0,30.2-14.1,30.2-31.7c0-0.1,0-0.2,0-0.3c0-0.5,0-1.3,0-1.7
				c0-4.7-0.7-25.5-24.8-26.5H20v2.2C20,83.1,27.5,83.7,27.5,89.6z M37.7,86c5,0,14.5,1.7,14.5,23c0,26-8.1,28.1-14.5,28.1V86z"/>
			<path class="st0" d="M29.2,140.9c-2.2-0.1-3.2-0.3-4.5-0.7c-12.3-3.8-13-17-12.5-21.1c0-0.1,0.2-0.2,0.2,0c0.3,2.1,1,3.7,1.8,5.4
				c2,4.2,5,7.2,9.1,7.4c0.3,0,0.5,0,0.5,0h13.6"/>
			<circle class="st0" cx="17.3" cy="120.2" r="5.2"/>
			<rect x="27.5" y="127.2" class="st0" width="10.3" height="39.1"/>
			<circle class="st0" cx="37.8" cy="135.3" r="3.3"/>
		</g>
		<path class="st0" d="M30.9,166.3h-6.4v-2.2c0,0,2.9-0.2,2.9-3.3"/>
		<path class="st0" d="M34.3,166.3h6.4v-2.2c0,0-2.9-0.2-2.9-3.3"/>
		<path class="st0" d="M168.4,66c0-1.7,0.2-2.8,0.6-3.4c0.4-0.6,1.1-0.8,2.3-0.8V59H160v2.8c1.1,0,1.9,0.3,2.2,0.9
			c0.3,0.6,0.5,1.7,0.5,3.3v6h-9v-6.1c0-1.6,0.2-2.8,0.6-3.3c0.4-0.6,1.1-0.9,2.3-0.9v-2.8h-11.4v2.8c1.2,0,2,0.3,2.3,0.9
			c0.4,0.6,0.5,1.7,0.5,3.3v16.5c0,1.7-0.2,4.4-0.6,5c-0.4,0.6-1.1,0.9-2.3,0.9v2.3h9.3c0.7-0.6,1.4-1.2,2.1-1.8V88
			c-1.2,0-1.8-0.4-2.3-0.9c-0.6-0.7-0.5-2-0.5-2.5v-9.4h9v5.5c0,0.9-0.1,1.6-0.5,2.2s-0.7,1.4-2.2,1.6v2.3c0.5-0.3,1.1-0.6,1.7-0.8
			c1.8-0.7,3.8-1,6-1c1.3,0,2.6,0.1,3.7,0.4v-2.1c-1.3-0.3-2.2-1-2.5-1.6c-0.4-0.8-0.4-1.4-0.4-3.1V66H168.4z"/>
		<path class="st0" d="M182.8,124c-0.9-2-2-3.7-3.4-5s-2.9-2.5-4.7-3.3c-1.5-0.7-5.3-2.6-6.8-3.2c-1.8-0.9-1.9-2.8-0.3-3.9l0,0
			c0,0.1,0,0.2,0,0.4c0,1,0.8,1.8,1.8,1.8s1.8-0.8,1.8-1.8s-0.8-1.8-1.8-1.8c0,0-0.1,0-0.2,0c0,0-3.4,0.2-5.2,3.4
			c-0.3-0.2-0.6-0.4-0.9-0.7c-0.8-0.7-1.4-1.5-1.9-2.5c-0.5-0.9-0.7-2.1-0.7-3.5c0-0.7,0-2.1,0.2-2.9c1.2-4.6,4.9-7.9,9.6-7.9
			c2.5,0,4.8,1,6.5,2.6c0,0,0,0-0.1,0c-3,0-5.5,2.5-5.5,5.5s2.5,5.5,5.5,5.5s5.5-2.5,5.5-5.5c0-0.3,0-0.7-0.1-1l0,0c0,0,0,0,0-0.1
			c0-0.2-0.1-0.3-0.1-0.5c-0.5-1.9-1.3-3.7-2.3-5.3c-1.2-1.8-2.8-3.3-4.7-4.5c-2-1.2-4.5-1.8-7.3-1.8c-2.2,0-4.2,0.3-6,1
			s-3.5,1.7-4.8,3.1s-2.4,3.1-3.1,5c-0.7,1.9-1.1,4.2-1.1,6.6c0,3,0.5,5.5,1.4,7.6c0.9,2,2.1,3.8,3.5,5.2c1.4,1.4,3,2.5,4.7,3.4
			c0.4,0.2,0.8,0.4,1.2,0.6h-0.1c0,0,0.2,0.1,0.5,0.2c0.1,0.1,0.3,0.1,0.4,0.2c4.6,2.1,5.2,4.2,4.1,5.9l0,0c0-0.1,0-0.2,0-0.4
			c-0.2-1-1.2-1.7-2.2-1.5s-1.7,1.2-1.5,2.2c0.2,1,1.2,1.7,2.2,1.5c0,0,0.1,0,0.3-0.1c0,0,2.8-0.5,4.1-4.5c0.9,0.5,1.8,1.1,2.6,1.7
			c0.8,0.7,1.4,1.5,1.9,2.4c0.5,0.9,0.7,2,0.7,3.3c0,1.8-0.2,3.3-0.7,4.4c-0.5,1.1-1,2.1-1.8,2.8c-0.7,0.7-2.3,1.5-3.2,1.8
			c0,0-10.8,4-16.6-6.4c0.9,0.7,2,1.1,3.3,1.1c3,0,5.5-2.5,5.5-5.5s-2.5-5.5-5.5-5.5c-2.2,0-4.1,1.3-5,3.2l0,0v0.1l0,0
			c-1.1,2,0,7.6,0,7.6c0.2,0.7,0.4,1.5,0.7,2.2c0.9,2.5,2.2,4.7,3.7,6.4c1.5,1.8,3.3,3.2,5.3,4.2s4.1,1.5,6.2,1.5
			c2.3,0,4.4-0.4,6.4-1.2s3.7-2,5.2-3.5c1.4-1.5,2.6-3.5,3.4-5.7c0.8-2.2,1.2-4.8,1.2-7.6C184.1,128.4,183.7,126,182.8,124z"/>
		<path class="st0" d="M100.5,142.4h-2.4c0,0-0.5,2.4-2.6,2.4s-0.9,0.5-0.9,0.5h5.9V142.4z"/>
		<path class="st0" d="M66.2,177.5v2.3h3h10.1h3v-2.3c0,0-2.8-0.2-2.8-2.1v-12.6c0-9.3-7.3-17.2-16.7-17.4
			c-11-0.1-17.2,8.7-17.2,19.6v45.6v1c0,5.2,1.2,9.9,3.2,12.3c1.1,1.3,4.5,5.9,11.9,5.9c3.2,0,6.2-1,8.1-2.7v6.8c0,0,0,0.2,0,0.5
			c-0.3,4.2-1.2,7.1-5.4,9.1c-0.1,0-0.1,0.1-0.2,0.1c0.8-0.9,1.2-2.1,1.2-3.5c0-3-2.5-5.5-5.5-5.5s-5.5,2.5-5.5,5.5
			c0,2.7,1.9,4.9,4.5,5.4l0,0c0.1,0,0.2,0,0.3,0s0.2,0,0.3,0c4.6,0.4,16.5-0.8,20.1-12.6c0.4-1.3,0.6-2.3,0.7-4.5
			c0-0.6,0.1-1.1,0.1-1.7v-33.4c0-1.8,2.8-2.1,2.8-2.1v-2.3h-3h-9.9h-3v2.3c0,0,2.8,0.3,2.8,2.1v23.8c0,1.2-0.3,2.5-1,3.5
			c-0.9,1.3-2.4,2.5-5.2,2.5c-0.1,0-0.1,0-0.2,0c-3.5-0.1-6.3-2.9-6.3-6.4v-52.3c0,0-0.5-9.1,6.4-9.1c6.3,0,6.3,6.1,6.3,6.1v13.7
			C69,177.4,66.2,177.5,66.2,177.5z"/>
		<path class="st0" d="M100.5,147.1v-2.6c0,0-22,2.6-22-6.6V83.1c0-0.1,0-0.1,0-0.2c0-2.9,3-2.9,3-2.9v-2.3h-1.9h-1.1h-11h-1.1h-1.9
			V80c0,0,3,0.1,3,2.9v53.8v5.6c3.4,0.8,6.5,2.5,9,4.7h1.4L100.5,147.1L100.5,147.1z"/>
	</g>
</g>
</svg>
