<?xml version="1.0" encoding="utf-8"?>
<!-- Generator: Adobe Illustrator 22.0.1, SVG Export Plug-In . SVG Version: 6.00 Build 0)  -->
<svg version="1.1" id="Layer_1" xmlns="http://www.w3.org/2000/svg" xmlns:xlink="http://www.w3.org/1999/xlink" x="0px" y="0px"
	 viewBox="0 0 300 300" style="enable-background:new 0 0 300 300;" xml:space="preserve">
<style type="text/css">
	.st0{fill:#AAAAAA;}
</style>
<g>
	<path class="st0" d="M186.3,109.7c-0.4,0.9-1.2,1.4-2.2,1.4h-6.2V141c0,1.3-1.1,2.4-2.4,2.4h-15.4c-1.3,0-2.4-1-2.4-2.3v-9.7h-14.7
		v9.7c0,1.3-1.1,2.4-2.4,2.4h-14.7c-1.3,0-2.4-1.1-2.4-2.4v-29.8H117c-0.9,0-1.8-0.5-2.1-1.4c-0.4-0.8-0.3-1.8,0.3-2.5l9.6-11.3
		V77.6c0-1.3,1.1-2.4,2.4-2.4h10.6c1.3,0,2.4,1.1,2.4,2.4v1.1l8.8-7.7c1-0.8,2.4-0.8,3.3,0.2l33.5,35.9
		C186.6,107.9,186.8,108.9,186.3,109.7L186.3,109.7z M150.6,52.4c-30.9,0-55.9,25-55.9,55.9s25,55.9,55.9,55.9s55.9-25,55.9-55.9
		S181.6,52.4,150.6,52.4L150.6,52.4z"/>
	<path class="st0" d="M150.6,103.3c-3.4-7.3-13.9-5.9-13.8,2.9c0,4.5,4.7,7.3,7.7,9.6c2.8,2.2,4.9,3.6,6.1,4.6l0,0
		c1.2-1,3.3-2.4,6.1-4.6c3-2.3,7.6-5.1,7.7-9.6C164.6,97.4,154.1,96,150.6,103.3L150.6,103.3z"/>
	<polygon class="st0" points="71.4,193 75.8,183 81.1,183 73.9,197.9 73.9,207.4 68.9,207.4 68.9,198.1 61.8,183 67.2,183 	"/>
	<path class="st0" d="M87.8,198c0,1.9,0.3,3.2,0.8,4.2c0.5,0.9,1.3,1.4,2.5,1.4c1.1,0,2-0.5,2.5-1.4s0.8-2.3,0.8-4.2
		s-0.3-3.2-0.8-4.2c-0.5-0.9-1.3-1.4-2.5-1.4c-1.1,0-2,0.5-2.5,1.4C88.1,194.8,87.8,196.2,87.8,198L87.8,198z M99.4,198
		c0,1.6-0.2,2.9-0.6,4.1c-0.4,1.2-0.9,2.2-1.7,3c-0.7,0.8-1.6,1.4-2.6,1.9c-1,0.4-2.2,0.6-3.5,0.6c-1.2,0-2.3-0.2-3.3-0.6
		c-1-0.4-1.9-1-2.6-1.9c-0.7-0.8-1.3-1.8-1.7-3c-0.4-1.2-0.6-2.6-0.6-4.1s0.2-2.9,0.6-4.1c0.4-1.2,0.9-2.2,1.7-3
		c0.7-0.8,1.6-1.4,2.6-1.9c1-0.4,2.2-0.6,3.5-0.6c1.2,0,2.3,0.2,3.3,0.6c1,0.4,1.9,1,2.6,1.9c0.7,0.8,1.3,1.8,1.7,3
		C99.2,195.1,99.4,196.5,99.4,198L99.4,198z"/>
	<path class="st0" d="M115.5,207.4l-0.6-2.4h-0.3c-0.3,0.5-0.6,0.9-1,1.2s-0.8,0.6-1.2,0.8c-0.4,0.2-0.9,0.4-1.4,0.5s-1,0.2-1.5,0.2
		c-0.9,0-1.7-0.1-2.4-0.4c-0.7-0.3-1.3-0.7-1.9-1.2c-0.5-0.6-0.9-1.3-1.2-2.1c-0.3-0.9-0.4-1.9-0.4-3.1v-12.1h5v10.9
		c0,1.3,0.2,2.3,0.6,3s1,1,1.9,1c0.6,0,1.2-0.1,1.6-0.4c0.4-0.3,0.8-0.7,1-1.2c0.3-0.5,0.4-1.2,0.5-1.9c0.1-0.8,0.2-1.6,0.2-2.6
		v-8.8h5v18.6H115.5L115.5,207.4z"/>
	<path class="st0" d="M134.1,188.4c0.1,0,0.3,0,0.4,0c0.2,0,0.3,0,0.5,0c0.1,0,0.3,0,0.4,0.1c0.1,0,0.2,0,0.3,0.1v4.8
		c-0.1,0-0.2,0-0.4-0.1c-0.2,0-0.3,0-0.5-0.1c-0.2,0-0.3,0-0.5,0s-0.3,0-0.4,0c-0.6,0-1.2,0.1-1.8,0.3c-0.5,0.2-1,0.4-1.4,0.8
		c-0.4,0.4-0.7,0.9-0.9,1.5s-0.3,1.3-0.3,2.2v9.5h-5v-18.6h3.8l0.7,2.8h0.2c0.3-0.5,0.5-0.9,0.8-1.3c0.3-0.4,0.6-0.7,1-1
		s0.8-0.5,1.3-0.6C132.8,188.5,133.4,188.4,134.1,188.4L134.1,188.4z"/>
	<polygon class="st0" points="166.1,207.4 161.1,207.4 161.1,196.9 153.1,196.9 153.1,207.4 148.1,207.4 148.1,183 153.1,183 
		153.1,192.6 161.1,192.6 161.1,183 166.1,183 	"/>
	<path class="st0" d="M175.8,198c0,1.9,0.3,3.2,0.8,4.2c0.5,0.9,1.3,1.4,2.5,1.4c1.1,0,2-0.5,2.5-1.4s0.8-2.3,0.8-4.2
		s-0.3-3.2-0.8-4.2c-0.5-0.9-1.3-1.4-2.5-1.4c-1.1,0-2,0.5-2.5,1.4C176.1,194.8,175.8,196.2,175.8,198L175.8,198z M187.4,198
		c0,1.6-0.2,2.9-0.6,4.1c-0.4,1.2-0.9,2.2-1.7,3c-0.7,0.8-1.6,1.4-2.6,1.9c-1,0.4-2.2,0.6-3.5,0.6c-1.2,0-2.3-0.2-3.3-0.6
		c-1-0.4-1.9-1-2.6-1.9c-0.7-0.8-1.3-1.8-1.7-3s-0.6-2.6-0.6-4.1s0.2-2.9,0.6-4.1c0.4-1.2,0.9-2.2,1.7-3c0.7-0.8,1.6-1.4,2.6-1.9
		c1-0.4,2.2-0.6,3.5-0.6c1.2,0,2.3,0.2,3.3,0.6c1,0.4,1.9,1,2.6,1.9c0.7,0.8,1.3,1.8,1.7,3C187.2,195.1,187.4,196.5,187.4,198
		L187.4,198z"/>
	<path class="st0" d="M207.2,207.4h-5v-10.9c0-1.3-0.2-2.3-0.6-3c-0.4-0.7-1-1-1.8-1c-0.6,0-1.2,0.1-1.6,0.4c-0.4,0.3-0.8,0.7-1,1.2
		s-0.4,1.2-0.5,1.9c-0.1,0.8-0.2,1.6-0.2,2.6v8.7h-5v-18.6h3.8l0.7,2.4h0.3c0.3-0.5,0.6-0.9,0.9-1.2c0.4-0.3,0.8-0.6,1.2-0.8
		s0.9-0.4,1.4-0.5s1-0.2,1.5-0.2c1.2,0,2.3,0.2,3.2,0.7c0.9,0.4,1.5,1.1,2,2.1h0.4c0.3-0.5,0.6-0.9,0.9-1.2c0.4-0.3,0.8-0.6,1.2-0.8
		s0.9-0.4,1.4-0.5s1-0.2,1.5-0.2c1.9,0,3.4,0.5,4.4,1.6s1.5,2.8,1.5,5.2v12.1h-5v-10.9c0-1.3-0.2-2.3-0.6-3c-0.4-0.7-1-1-1.8-1
		c-1.2,0-2,0.5-2.5,1.4c-0.5,1-0.7,2.3-0.7,4.1L207.2,207.4L207.2,207.4z"/>
	<path class="st0" d="M230.3,192c-0.9,0-1.6,0.3-2.2,0.9c-0.6,0.6-0.9,1.6-1,3h6.3c0-0.6-0.1-1.1-0.2-1.6c-0.1-0.5-0.3-0.9-0.6-1.2
		s-0.6-0.6-1-0.8C231.3,192.1,230.8,192,230.3,192L230.3,192z M230.9,207.7c-1.3,0-2.5-0.2-3.6-0.6c-1.1-0.4-2-1-2.8-1.8
		s-1.4-1.8-1.8-3c-0.4-1.2-0.7-2.6-0.7-4.2c0-1.6,0.2-3.1,0.6-4.3c0.4-1.2,1-2.2,1.7-3.1c0.7-0.8,1.6-1.4,2.6-1.8
		c1-0.4,2.1-0.6,3.4-0.6c1.2,0,2.3,0.2,3.3,0.6c1,0.4,1.8,0.9,2.5,1.6c0.7,0.7,1.2,1.6,1.6,2.7c0.4,1,0.5,2.2,0.5,3.6v2.5h-11.1
		c0,0.7,0.1,1.4,0.3,1.9c0.2,0.6,0.5,1.1,0.8,1.4c0.4,0.4,0.8,0.7,1.3,0.9s1.1,0.3,1.8,0.3c0.6,0,1.1,0,1.6-0.1s1-0.2,1.4-0.3
		c0.5-0.1,0.9-0.3,1.4-0.5s0.9-0.4,1.4-0.6v3.9c-0.4,0.2-0.9,0.4-1.3,0.6c-0.4,0.2-0.9,0.3-1.4,0.4c-0.5,0.1-1,0.2-1.6,0.2
		C232.2,207.7,231.6,207.7,230.9,207.7L230.9,207.7z"/>
	<path class="st0" d="M87.4,239.4l-5.2-19.1h-0.1c0.1,1,0.1,2,0.2,3c0,0.4,0,0.8,0.1,1.3c0,0.4,0,0.9,0,1.3c0,0.4,0,0.8,0,1.2
		s0,0.7,0,1v11.3h-4.5v-24.3h6.9l5.1,18.6l0,0l5.5-18.6h6.9v24.3h-4.7v-11.5c0-0.3,0-0.6,0-1s0-0.8,0-1.2s0-0.8,0-1.2s0-0.8,0-1.2
		c0-0.9,0.1-1.9,0.1-2.9h-0.1l-5.6,19L87.4,239.4L87.4,239.4z"/>
	<path class="st0" d="M105.2,220.8h5.4l2.9,10.5c0.2,0.6,0.3,1.2,0.4,1.8c0.1,0.7,0.1,1.2,0.2,1.8h0.1c0-0.3,0.1-0.5,0.1-0.8
		s0.1-0.6,0.1-0.9c0.1-0.3,0.1-0.6,0.2-1c0.1-0.3,0.1-0.6,0.2-0.9l2.9-10.5h5.5l-7.2,21c-0.7,2-1.6,3.4-2.7,4.4
		c-1.2,1-2.6,1.4-4.4,1.4c-0.6,0-1,0-1.5-0.1c-0.4-0.1-0.8-0.1-1.1-0.2v-4c0.2,0.1,0.5,0.1,0.9,0.1c0.3,0,0.7,0.1,1.1,0.1
		c0.5,0,1-0.1,1.3-0.2c0.4-0.1,0.7-0.3,1-0.6s0.5-0.6,0.7-0.9c0.2-0.4,0.4-0.8,0.5-1.2l0.3-0.9L105.2,220.8L105.2,220.8z"/>
	<polygon class="st0" points="152.9,239.4 147.9,239.4 147.9,228.9 139.8,228.9 139.8,239.4 134.8,239.4 134.8,215.1 139.8,215.1 
		139.8,224.6 147.9,224.6 147.9,215.1 152.9,215.1 	"/>
	<path class="st0" d="M162.8,230.1c0,1.9,0.3,3.2,0.8,4.2c0.5,0.9,1.3,1.4,2.5,1.4c1.1,0,2-0.5,2.5-1.4s0.8-2.3,0.8-4.2
		s-0.3-3.2-0.8-4.2c-0.5-0.9-1.3-1.4-2.5-1.4c-1.1,0-2,0.5-2.5,1.4C162.9,226.8,162.8,228.2,162.8,230.1L162.8,230.1z M174.2,230.1
		c0,1.6-0.2,2.9-0.6,4.1c-0.4,1.2-0.9,2.2-1.7,3c-0.7,0.8-1.6,1.4-2.6,1.9c-1,0.4-2.2,0.6-3.5,0.6c-1.2,0-2.3-0.2-3.3-0.6
		c-1-0.4-1.9-1.1-2.6-1.9c-0.7-0.8-1.3-1.8-1.7-3s-0.6-2.6-0.6-4.1s0.2-2.9,0.6-4.1c0.4-1.2,0.9-2.2,1.7-3c0.7-0.8,1.6-1.4,2.6-1.9
		c1-0.4,2.2-0.6,3.5-0.6c1.2,0,2.3,0.2,3.3,0.6c1,0.4,1.9,1,2.6,1.9c0.7,0.8,1.3,1.8,1.7,3C174.1,227.2,174.2,228.5,174.2,230.1
		L174.2,230.1z"/>
	<path class="st0" d="M194.1,239.4h-5v-10.9c0-1.3-0.2-2.3-0.6-3c-0.4-0.7-1-1-1.8-1c-0.6,0-1.1,0.1-1.6,0.4c-0.4,0.3-0.8,0.7-1,1.2
		s-0.4,1.2-0.5,1.9c-0.1,0.8-0.2,1.6-0.2,2.6v8.8h-5v-18.6h3.8l0.7,2.4h0.3c0.3-0.5,0.6-0.9,0.9-1.2c0.4-0.3,0.8-0.6,1.2-0.8
		s0.9-0.4,1.4-0.5s1-0.2,1.5-0.2c1.2,0,2.3,0.2,3.2,0.7c0.9,0.4,1.5,1.1,2,2.1h0.4c0.3-0.5,0.6-0.9,0.9-1.2c0.4-0.3,0.8-0.6,1.2-0.8
		s0.9-0.4,1.4-0.5s1-0.2,1.5-0.2c2,0,3.4,0.5,4.4,1.6s1.5,2.8,1.5,5.2v12.1h-5v-10.9c0-1.3-0.2-2.3-0.6-3c-0.4-0.7-1-1-1.8-1
		c-1.2,0-2,0.5-2.5,1.4s-0.7,2.3-0.7,4.1L194.1,239.4L194.1,239.4z"/>
	<path class="st0" d="M217.1,224.1c-0.9,0-1.6,0.3-2.2,0.9c-0.6,0.6-0.9,1.6-1,3h6.3c0-0.6-0.1-1.1-0.2-1.6
		c-0.1-0.5-0.3-0.9-0.6-1.2c-0.3-0.4-0.6-0.6-1-0.8C218.1,224.2,217.8,224.1,217.1,224.1L217.1,224.1z M217.8,239.7
		c-1.3,0-2.5-0.2-3.6-0.6c-1.1-0.4-2-1-2.8-1.8s-1.4-1.8-1.8-3c-0.4-1.2-0.7-2.6-0.7-4.2c0-1.6,0.2-3.1,0.6-4.3
		c0.4-1.2,1-2.2,1.7-3.1c0.7-0.8,1.6-1.4,2.6-1.8c1-0.4,2.1-0.6,3.4-0.6c1.2,0,2.3,0.2,3.3,0.6c1,0.4,1.8,0.9,2.5,1.6
		c0.7,0.7,1.2,1.6,1.6,2.7c0.4,1,0.5,2.2,0.5,3.6v2.5H214c0,0.7,0.1,1.4,0.3,1.9c0.2,0.6,0.5,1.1,0.8,1.4c0.4,0.4,0.8,0.7,1.3,0.9
		s1.1,0.3,1.8,0.3c0.6,0,1.1,0,1.6-0.1s1-0.2,1.4-0.3c0.5-0.1,0.9-0.3,1.4-0.5s0.9-0.4,1.4-0.6v3.9c-0.4,0.2-0.9,0.4-1.3,0.6
		c-0.4,0.2-0.9,0.3-1.4,0.4c-0.5,0.1-1,0.2-1.6,0.2C219.1,239.7,218.4,239.7,217.8,239.7L217.8,239.7z"/>
</g>
</svg>
