<?xml version="1.0" encoding="utf-8"?>
<!-- Generator: Adobe Illustrator 22.0.1, SVG Export Plug-In . SVG Version: 6.00 Build 0)  -->
<svg version="1.1" id="Layer_1" xmlns="http://www.w3.org/2000/svg" xmlns:xlink="http://www.w3.org/1999/xlink" x="0px" y="0px"
	 viewBox="0 0 300 300" style="enable-background:new 0 0 300 300;" xml:space="preserve">
<style type="text/css">
	.st0{fill:#AAAAAA;}
</style>
<g>
	<polygon class="st0" points="80,98.4 89.9,104.7 89.4,105.5 80.8,100 84.2,107.7 75.8,107.7 84.4,113.3 83.9,114 74,107.7 
		74.5,106.8 82.8,106.8 79.4,99.2 	"/>
</g>
<g>
	<path class="st0" d="M90.2,88.3l2.4,2.6c0.2-0.2,0.5-0.3,0.8-0.4s0.6-0.2,1-0.3c0.3-0.1,0.6-0.2,0.9-0.3c0.5-0.2,0.9-0.5,1.1-0.9
		c0.1-0.2,0.1-0.3,0.2-0.5c0-0.2,0-0.4,0-0.6s0-0.4-0.1-0.7l0.9-0.1c0,0.2,0.1,0.5,0.1,0.7c0,0.3,0,0.5,0,0.8s-0.1,0.5-0.2,0.8
		s-0.3,0.5-0.5,0.7c-0.3,0.3-0.6,0.5-1,0.6c-0.3,0.1-0.7,0.2-1,0.3c-0.3,0.1-0.6,0.2-0.9,0.3c-0.2,0.1-0.3,0.2-0.5,0.3l3.7,4.1
		l4.8-4.4l0.6,0.7L97,97l-4.1-4.5c0,0.3,0.1,0.5,0.1,0.7l-1,0.2c-0.1-0.4-0.2-0.8-0.2-1.1c0-0.2,0.1-0.5,0.2-0.7l-3.1-3.3l5.5-5
		L95,84L90.2,88.3L90.2,88.3z"/>
</g>
<g>
	<polygon class="st0" points="104.9,75.7 110.3,85.2 116.2,81.9 116.7,82.7 109.9,86.5 104.1,76.2 	"/>
</g>
<g>
	<path class="st0" d="M130.1,76.7c0.8-0.2,1.4-0.7,1.8-1.3c0.4-0.6,0.5-1.3,0.3-2s-0.6-1.2-1.2-1.5c-0.5,0.6-1.2,0.9-1.9,1.2
		l-4.2,1.2l1,3.7L130.1,76.7L130.1,76.7z M130,71.6c-0.4-0.1-0.9,0-1.3,0.1l-4.2,1.2l0.1,0.5l4.2-1.2C129.2,72,129.6,71.8,130,71.6
		L130,71.6z M130.9,68.8c-0.2-0.7-0.6-1.2-1.3-1.6c-0.7-0.3-1.4-0.4-2.2-0.2l-4.2,1.2l1,3.7l4.2-1.2c0.8-0.2,1.5-0.2,2.2,0
		C131,70.1,131.1,69.5,130.9,68.8L130.9,68.8z M131.8,68.6c0.2,0.9,0.1,1.7-0.3,2.5c0.8,0.5,1.3,1.1,1.6,2s0.1,1.8-0.4,2.7
		c-0.5,0.9-1.3,1.4-2.4,1.7l-4.6,1.3l0,0l-0.4,0.1l-3.2-11.4l0.4-0.1l0,0l4.6-1.3c1-0.3,2-0.2,2.9,0.3
		C131,66.9,131.5,67.6,131.8,68.6L131.8,68.6z"/>
</g>
<g>
	<path class="st0" d="M149.5,74c1.3-0.1,2.3-0.7,3.2-1.6c0.9-1,1.3-2.1,1.2-3.4c0-1.3-0.5-2.4-1.4-3.3s-2-1.4-3.2-1.5L149.5,74
		L149.5,74z M144,69.2c0,1.3,0.5,2.4,1.4,3.3s2,1.4,3.2,1.5l-0.2-9.9c-1.3,0.1-2.3,0.7-3.2,1.6C144.4,66.8,144,67.9,144,69.2
		L144,69.2z M154.9,69c0,1.5-0.5,2.9-1.5,4s-2.3,1.8-3.8,1.9v0.7h-0.9v-0.7c-1.5-0.1-2.8-0.7-3.9-1.8c-1.1-1.1-1.6-2.4-1.6-4
		c0-1.5,0.5-2.9,1.5-4s2.3-1.8,3.8-1.9v-0.7h0.9v0.7c1.5,0.1,2.8,0.7,3.9,1.8C154.3,66.1,154.8,67.5,154.9,69L154.9,69z"/>
</g>
<g>
	<path class="st0" d="M176.6,67.2l-1.6,6.3c-0.4,1.4-1.1,2.5-2.3,3.3s-2.4,1-3.7,0.6c-1.3-0.3-2.3-1.1-2.9-2.4
		c-0.7-1.2-0.8-2.6-0.4-4l1.6-6.3L168,65l-1.6,6.3c-0.3,1.2-0.2,2.3,0.3,3.3s1.3,1.7,2.4,2c1.1,0.3,2.1,0.1,3-0.5
		c1-0.6,1.6-1.5,1.9-2.7l1.6-6.3L176.6,67.2L176.6,67.2z"/>
</g>
<g>
	<path class="st0" d="M185.7,77.6l3.8,2.1c0.7,0.4,1.4,0.5,2.2,0.3s1.3-0.6,1.7-1.2c0.3-0.6,0.4-1.3,0.1-2c-0.2-0.7-0.7-1.3-1.4-1.7
		l-3.8-2.1L185.7,77.6L185.7,77.6z M189.7,84c0.2,0.7,0.3,1.1,0.4,1.3c0.1,0.2,0.6,0.5,1.3,0.8l-0.5,0.8c-0.8-0.5-1.4-0.8-1.6-1.1
		c-0.2-0.3-0.4-0.8-0.6-1.6l-1.1-4.5l-2.4-1.3l-2.3,4.1l-0.8-0.4l5.8-10.3l0.4,0.2l0,0l4.2,2.3c0.9,0.5,1.6,1.3,1.9,2.2
		c0.3,1,0.2,1.9-0.2,2.7c-0.5,0.9-1.2,1.4-2.2,1.6s-2,0.1-2.9-0.4l-0.3-0.2L189.7,84L189.7,84z"/>
</g>
<g>
	<polygon class="st0" points="213.9,91.1 205.7,99.6 205,98.9 206.9,97 206.5,85.5 199,93.2 198.4,92.5 206.6,84 207.4,84.8 
		207.8,96.1 213.2,90.5 	"/>
</g>
<g>
	<path class="st0" d="M221.8,103l-3,1.8c0.1,0.3,0.2,0.6,0.3,0.9s0.1,0.7,0.1,1s0.1,0.7,0.1,1c0.1,0.6,0.3,1,0.7,1.2
		c0.2,0.1,0.3,0.2,0.5,0.2c0.2,0.1,0.4,0.1,0.6,0.1c0.2,0,0.4,0,0.7,0v0.9c-0.2,0-0.5,0-0.7-0.1c-0.3,0-0.5-0.1-0.8-0.2
		s-0.5-0.2-0.7-0.4c-0.2-0.2-0.5-0.4-0.6-0.7c-0.2-0.3-0.4-0.7-0.4-1.1c-0.1-0.3-0.1-0.7-0.1-1.1c0-0.3-0.1-0.6-0.1-0.9
		c0-0.2-0.1-0.3-0.2-0.5l-4.7,2.9l3.4,5.5l-0.8,0.5l-3.9-6.3l5.2-3.2c-0.3,0-0.5,0-0.7,0l-0.1-0.9c0.4-0.1,0.8,0,1.2,0
		c0.2,0,0.5,0.1,0.7,0.3l3.9-2.4l3.9,6.3l-0.8,0.5L221.8,103L221.8,103z"/>
</g>
<g>
	<polygon class="st0" points="108.9,200.5 108.9,212.2 108,212.2 108,202 103.4,209.1 98.8,202 98.8,212.2 97.8,212.2 97.8,200.5 
		98.9,200.5 103.4,207.4 107.9,200.5 	"/>
</g>
<g>
	<path class="st0" d="M126.2,207.9L126.2,207.9L126.2,207.9l-2.9-6.6l-2.5,5.6c0.2,0,0.3,0,0.4,0c0.4,0,0.9,0.1,1.3,0.2
		c0.4,0.1,0.7,0.3,1.1,0.4c0.3,0.2,0.7,0.3,1,0.4c0.6,0.2,0.9,0.3,0.9,0.3S125.7,208.1,126.2,207.9L126.2,207.9z M127.9,207.8
		c-0.2,0.2-0.3,0.3-0.5,0.5l1.8,4h-1l-1.6-3.5l0,0l0,0c-0.3,0.1-0.6,0.2-1,0.2c-0.5,0-0.9-0.1-1.3-0.2c-0.4-0.1-0.7-0.3-1.1-0.4
		c-0.3-0.1-0.7-0.3-1-0.4c-0.8-0.3-1.3-0.2-1.7,0.1c-0.1,0.1-0.3,0.3-0.4,0.6l-1.6,3.6h-1l1.8-3.9l0,0v-0.1l0,0l3.5-7.8h1.3l3.1,6.9
		c0.1-0.1,0.1-0.1,0.2-0.2c0.2-0.2,0.3-0.4,0.5-0.5l0.7,0.6c-0.2,0.2-0.2,0.3-0.2,0.3S128.1,207.6,127.9,207.8L127.9,207.8z"/>
</g>
<g>
	<path class="st0" d="M138.5,206.6h4.3c0.8,0,1.5-0.3,2.1-0.8s0.9-1.1,0.9-1.9c0-0.7-0.3-1.3-0.9-1.8c-0.6-0.5-1.3-0.8-2.1-0.8h-4.3
		V206.6L138.5,206.6z M145,210.3c0.5,0.5,0.8,0.8,1,0.9c0.2,0.1,0.7,0.1,1.5,0.1v0.9c-1,0-1.6-0.1-1.9-0.2c-0.3-0.1-0.7-0.5-1.3-1.1
		l-3.1-3.3h-2.8v4.7h-0.9v-11.8h0.5l0,0h4.8c1.1,0,2,0.3,2.7,1c0.8,0.7,1.1,1.5,1.1,2.5s-0.4,1.8-1.1,2.5c-0.8,0.7-1.7,1-2.7,1h-0.3
		L145,210.3L145,210.3z"/>
</g>
<g>
	<polygon class="st0" points="165,200.4 165,201.4 160.9,201.4 160.9,212.2 160,212.2 160,201.4 156,201.4 156,200.4 	"/>
</g>
<g>
	<polygon class="st0" points="173.4,200.4 174.3,200.4 174.3,212.2 173.4,212.2 	"/>
</g>
<g>
	<polygon class="st0" points="192.8,200.4 192.8,212.2 191.9,212.2 191.9,209.5 183.6,201.5 183.6,212.2 182.7,212.2 182.7,200.4 
		183.8,200.4 191.9,208.2 191.9,200.4 	"/>
</g>
<g>
	<polygon class="st0" points="201.2,200.4 202.2,200.4 202.2,212.2 201.2,212.2 	"/>
</g>
<g>
	<path class="st0" d="M162,177.9h-24c-0.8,0-1.4-0.6-1.4-1.4c0-0.8,0.6-1.4,1.4-1.4h24c0.8,0,1.4,0.6,1.4,1.4
		C163.4,177.2,162.8,177.9,162,177.9L162,177.9z"/>
</g>
<g>
	<path class="st0" d="M204.1,153.1h-24c-0.8,0-1.4-0.6-1.4-1.4c0-0.8,0.6-1.4,1.4-1.4h24c0.8,0,1.4,0.6,1.4,1.4
		C205.6,152.4,204.9,153.1,204.1,153.1L204.1,153.1z"/>
</g>
<g>
	<path class="st0" d="M119.8,153.1h-24c-0.8,0-1.4-0.6-1.4-1.4c0-0.8,0.6-1.4,1.4-1.4h24c0.8,0,1.4,0.6,1.4,1.4
		C121.3,152.4,120.6,153.1,119.8,153.1L119.8,153.1z"/>
</g>
<g>
	<path class="st0" d="M150,169.9L150,169.9c-0.8,0-1.4-0.7-1.4-1.5l0.2-23.5L125,122.7c-0.4-0.4-0.6-1-0.4-1.6s0.7-0.9,1.3-0.9h48
		c0.6,0,1.1,0.4,1.3,0.9s0.1,1.2-0.3,1.6L158.1,139c-0.6,0.6-1.5,0.5-2,0c-0.6-0.6-0.5-1.5,0-2l14.3-13.8h-40.7l21.5,20.2
		c0.3,0.3,0.5,0.7,0.5,1.1l-0.2,24.1C151.4,169.3,150.8,169.9,150,169.9L150,169.9z"/>
</g>
<g>
	<path class="st0" d="M150,32C84.9,32,32,85,32,150c0,65.1,53,118,118,118c65.1,0,118-53,118-118C268,84.9,215.1,32,150,32L150,32z
		 M150,269c-65.6,0-119-53.4-119-119S84.4,31,150,31s119,53.4,119,119S215.6,269,150,269L150,269z"/>
	<path class="st0" d="M150,270c-66.2,0-120-53.8-120-120S83.8,30,150,30s120,53.8,120,120S216.2,270,150,270z M150,33
		C85.5,33,33,85.5,33,150s52.5,117,117,117s117-52.5,117-117S214.5,33,150,33z"/>
</g>
</svg>
