<?xml version="1.0" encoding="utf-8"?>
<!-- Generator: Adobe Illustrator 22.0.1, SVG Export Plug-In . SVG Version: 6.00 Build 0)  -->
<svg version="1.1" id="Layer_1" xmlns="http://www.w3.org/2000/svg" xmlns:xlink="http://www.w3.org/1999/xlink" x="0px" y="0px"
	 viewBox="0 0 300 300" style="enable-background:new 0 0 300 300;" xml:space="preserve">
<style type="text/css">
	.st0{fill:#AAAAAA;}
</style>
<g>
	<path class="st0" d="M42.5,118.1l-7.4-10.8c-0.3-0.4,0-0.9,0.5-0.9h3.3c0.3,0,0.4,0.2,0.5,0.3l5.2,7.4l5.2-7.4
		c0.1-0.1,0.3-0.3,0.5-0.3h3.3c0.5,0,0.8,0.5,0.5,0.9l-7.5,10.8v10.2c0,0.3-0.3,0.6-0.6,0.6h-3c-0.4,0-0.6-0.3-0.6-0.6L42.5,118.1
		L42.5,118.1z"/>
	<path class="st0" d="M66.9,121.2l-3.2-7.1h-0.1l-3.2,7.1H66.9L66.9,121.2z M53,128.1l10-21.7c0.1-0.2,0.3-0.4,0.5-0.4h0.3
		c0.3,0,0.5,0.2,0.5,0.4l10,21.7c0.2,0.4-0.1,0.8-0.5,0.8H71c-0.5,0-0.7-0.2-0.9-0.6l-1.6-3.5h-9.7l-1.6,3.5
		c-0.1,0.3-0.4,0.6-0.9,0.6h-2.8C53,128.9,52.8,128.4,53,128.1L53,128.1z"/>
	<path class="st0" d="M87.5,116.6c1.7,0,3.2-1.5,3.2-3.3c0-1.7-1.5-3.1-3.2-3.1h-5.3v6.4H87.5L87.5,116.6z M78,106.9
		c0-0.3,0.3-0.6,0.6-0.6h9.2c3.9,0,7,3.1,7,6.9c0,3-2,5.4-4.8,6.5l4.4,8.2c0.2,0.4,0,0.9-0.5,0.9h-3.4c-0.3,0-0.5-0.2-0.5-0.3
		l-4.3-8.6h-3.6v8.2c0,0.3-0.3,0.6-0.6,0.6h-3c-0.4,0-0.6-0.3-0.6-0.6v-21.2H78z"/>
	<path class="st0" d="M109.8,116.6c1.7,0,3.2-1.5,3.2-3.3c0-1.7-1.5-3.1-3.2-3.1h-5.3v6.4H109.8L109.8,116.6z M100.3,106.9
		c0-0.3,0.3-0.6,0.6-0.6h9.2c3.9,0,7,3.1,7,6.9c0,3-2,5.4-4.8,6.5l4.4,8.2c0.2,0.4,0,0.9-0.5,0.9h-3.4c-0.3,0-0.5-0.2-0.5-0.3
		l-4.3-8.6h-3.6v8.2c0,0.3-0.3,0.6-0.6,0.6h-3c-0.4,0-0.6-0.3-0.6-0.6v-21.2H100.3z"/>
	<path class="st0" d="M133.5,121.2l-3.2-7.1h-0.1l-3.2,7.1H133.5L133.5,121.2z M119.6,128.1l10.1-21.7c0.1-0.2,0.3-0.4,0.5-0.4h0.3
		c0.3,0,0.5,0.2,0.5,0.4l10,21.7c0.2,0.4-0.1,0.8-0.5,0.8h-2.8c-0.5,0-0.7-0.2-0.9-0.6l-1.6-3.5h-9.7l-1.6,3.5
		c-0.1,0.3-0.4,0.6-0.9,0.6h-2.8C119.6,128.9,119.4,128.4,119.6,128.1L119.6,128.1z"/>
	<path class="st0" d="M149.5,107.2c-0.2-0.4,0.1-0.8,0.5-0.8h3.3c0.3,0,0.5,0.2,0.5,0.4l6.2,13.9h0.2l6.2-13.9
		c0.1-0.2,0.3-0.4,0.5-0.4h3.3c0.5,0,0.7,0.4,0.5,0.8l-10,21.7c-0.1,0.2-0.3,0.4-0.5,0.4h-0.3c-0.3,0-0.5-0.2-0.5-0.4L149.5,107.2
		L149.5,107.2z"/>
	<path class="st0" d="M184,121.2l-3.2-7.1h-0.1l-3.2,7.1H184L184,121.2z M170.1,128.1l10.1-21.7c0.1-0.2,0.3-0.4,0.5-0.4h0.3
		c0.3,0,0.5,0.2,0.5,0.4l10,21.7c0.2,0.4-0.1,0.8-0.5,0.8h-2.8c-0.5,0-0.7-0.2-0.9-0.6l-1.6-3.5H176l-1.6,3.5
		c-0.1,0.3-0.4,0.6-0.9,0.6h-2.8C170.1,128.9,169.9,128.4,170.1,128.1L170.1,128.1z"/>
	<path class="st0" d="M195.1,106.9c0-0.3,0.3-0.6,0.6-0.6h3c0.3,0,0.6,0.3,0.6,0.6V125h8.2c0.4,0,0.6,0.3,0.6,0.6v2.6
		c0,0.3-0.3,0.6-0.6,0.6h-11.8c-0.4,0-0.6-0.3-0.6-0.6V106.9L195.1,106.9z"/>
	<path class="st0" d="M212.2,106.9c0-0.3,0.3-0.6,0.6-0.6h3c0.3,0,0.6,0.3,0.6,0.6V125h8.2c0.4,0,0.6,0.3,0.6,0.6v2.6
		c0,0.3-0.3,0.6-0.6,0.6h-11.8c-0.4,0-0.6-0.3-0.6-0.6V106.9L212.2,106.9z"/>
	<path class="st0" d="M229.2,106.9c0-0.3,0.3-0.6,0.6-0.6H243c0.4,0,0.6,0.3,0.6,0.6v2.6c0,0.3-0.3,0.6-0.6,0.6h-9.6v5.3h8
		c0.3,0,0.6,0.3,0.6,0.6v2.7c0,0.4-0.3,0.6-0.6,0.6h-8v5.7h9.6c0.4,0,0.6,0.3,0.6,0.6v2.6c0,0.3-0.3,0.6-0.6,0.6h-13.2
		c-0.4,0-0.6-0.3-0.6-0.6V106.9L229.2,106.9z"/>
	<path class="st0" d="M253.3,118.1l-7.4-10.8c-0.3-0.4,0-0.9,0.5-0.9h3.3c0.3,0,0.4,0.2,0.5,0.3l5.2,7.4l5.2-7.4
		c0.1-0.1,0.3-0.3,0.5-0.3h3.3c0.5,0,0.8,0.5,0.5,0.9l-7.5,10.8v10.2c0,0.3-0.3,0.6-0.6,0.6h-3c-0.4,0-0.6-0.3-0.6-0.6v-10.2H253.3z
		"/>
	<path class="st0" d="M81.8,178.1c0-0.2,0.2-0.4,0.4-0.4h9.4c0.3,0,0.4,0.2,0.4,0.4v1.9c0,0.2-0.2,0.4-0.4,0.4h-6.8v4.3h5.7
		c0.2,0,0.4,0.2,0.4,0.4v1.9c0,0.2-0.2,0.4-0.4,0.4h-5.7v5.8c0,0.2-0.2,0.4-0.4,0.4h-2.1c-0.3,0-0.4-0.2-0.4-0.4L81.8,178.1
		L81.8,178.1z"/>
	<path class="st0" d="M100.5,178.1c0-0.2,0.2-0.4,0.4-0.4h9.3c0.3,0,0.4,0.2,0.4,0.4v1.9c0,0.2-0.2,0.4-0.4,0.4h-6.8v3.8h5.7
		c0.2,0,0.4,0.2,0.4,0.4v1.9c0,0.3-0.2,0.4-0.4,0.4h-5.7v4h6.8c0.3,0,0.4,0.2,0.4,0.4v1.9c0,0.2-0.2,0.4-0.4,0.4h-9.3
		c-0.3,0-0.4-0.2-0.4-0.4V178.1L100.5,178.1z"/>
	<path class="st0" d="M118.8,191.4l0.8-1.4c0.2-0.3,0.6-0.3,0.8-0.2c0.1,0.1,2,1.4,3.5,1.4c1.2,0,2.1-0.8,2.1-1.8c0-1.2-1-2-2.9-2.8
		c-2.2-0.9-4.3-2.3-4.3-5c0-2,1.5-4.4,5.2-4.4c2.3,0,4.1,1.2,4.6,1.5c0.2,0.1,0.3,0.5,0.1,0.8l-0.9,1.3c-0.2,0.3-0.5,0.5-0.8,0.3
		c-0.2-0.1-1.9-1.3-3.2-1.3c-1.3,0-2,0.9-2,1.6c0,1.1,0.9,1.8,2.7,2.6c2.2,0.9,4.8,2.2,4.8,5.2c0,2.4-2,4.5-5.3,4.5
		c-2.9,0-4.6-1.4-5.1-1.8C118.7,191.9,118.6,191.9,118.8,191.4L118.8,191.4z"/>
	<path class="st0" d="M140.1,180.4h-3.5c-0.3,0-0.4-0.2-0.4-0.4v-1.9c0-0.2,0.2-0.4,0.4-0.4h10c0.3,0,0.4,0.2,0.4,0.4v1.9
		c0,0.2-0.2,0.4-0.4,0.4h-3.5v12.9c0,0.2-0.2,0.4-0.4,0.4h-2.1c-0.2,0-0.4-0.2-0.4-0.4v-12.9H140.1z"/>
	<path class="st0" d="M155.2,178.1c0-0.2,0.2-0.4,0.4-0.4h2.1c0.2,0,0.4,0.2,0.4,0.4v15.2c0,0.2-0.2,0.4-0.4,0.4h-2.1
		c-0.2,0-0.4-0.2-0.4-0.4V178.1L155.2,178.1z"/>
	<path class="st0" d="M166,178.2c-0.1-0.3,0-0.6,0.4-0.6h2.3c0.2,0,0.3,0.1,0.4,0.3l4.4,9.9h0.2l4.4-9.9c0-0.1,0.2-0.3,0.4-0.3h2.3
		c0.3,0,0.5,0.3,0.4,0.6l-7.1,15.5c-0.1,0.1-0.2,0.3-0.4,0.3h-0.2c-0.2,0-0.3-0.1-0.4-0.3L166,178.2L166,178.2z"/>
	<path class="st0" d="M195.8,188.2l-2.3-5.1h-0.1l-2.3,5.1H195.8L195.8,188.2z M185.9,193.1l7.1-15.5c0.1-0.1,0.2-0.3,0.4-0.3h0.2
		c0.2,0,0.3,0.1,0.4,0.3l7.1,15.5c0.1,0.3,0,0.6-0.4,0.6h-2c-0.3,0-0.5-0.1-0.7-0.5l-1.1-2.5H190l-1.1,2.5c-0.1,0.2-0.3,0.5-0.7,0.5
		h-2C185.9,193.8,185.7,193.4,185.9,193.1L185.9,193.1z"/>
	<g>
		<path class="st0" d="M208.9,178.1c0-0.2,0.2-0.4,0.4-0.4h2.1c0.2,0,0.4,0.2,0.4,0.4v12.9h5.9c0.3,0,0.4,0.2,0.4,0.4v1.9
			c0,0.2-0.2,0.4-0.4,0.4h-8.4c-0.3,0-0.4-0.2-0.4-0.4V178.1L208.9,178.1z"/>
		<path class="st0" d="M43,138.6h-4c-0.3,0-0.7,0.3-0.8,0.6l-4.4,17.4h-0.2l-7-17.9c-0.1-0.3-0.3-0.5-0.7-0.5h-0.8
			c-0.4,0-0.7,0.2-0.7,0.5l-6.9,17.9h-0.2l-4.6-17.3c-0.1-0.3-0.4-0.6-0.8-0.6H8c-0.6,0-1,0.4-0.8,1l8.2,29.2
			c0.1,0.3,0.4,0.6,0.8,0.6h0.7c0.4,0,0.6-0.2,0.7-0.5l7.7-19.7h0.2l7.8,19.7c0.1,0.3,0.3,0.5,0.7,0.5h0.7c0.3,0,0.7-0.3,0.8-0.6
			l8.2-29.2C43.9,139.1,43.6,138.6,43,138.6L43,138.6z"/>
	</g>
	<path class="st0" d="M89.3,138.6h-4c-0.5,0-0.8,0.4-0.8,0.8v18l0,0l-18.1-19.2h-1.1c-0.4,0-0.8,0.3-0.8,0.8v29.3
		c0,0.4,0.4,0.8,0.8,0.8h4c0.5,0,0.8-0.4,0.8-0.8v-18.7l0,0l18.2,20h1c0.4,0,0.8-0.3,0.8-0.8v-29.3
		C90.1,138.9,89.7,138.6,89.3,138.6L89.3,138.6z"/>
	<path class="st0" d="M117.5,138.6H99.8c-0.5,0-0.8,0.4-0.8,0.8v28.9c0,0.4,0.3,0.8,0.8,0.8h17.7c0.5,0,0.8-0.4,0.8-0.8v-3.6
		c0-0.4-0.3-0.8-0.8-0.8h-12.9v-7.6h10.7c0.4,0,0.8-0.3,0.8-0.8v-3.6c0-0.4-0.4-0.8-0.8-0.8h-10.7v-7.1h12.9c0.5,0,0.8-0.4,0.8-0.8
		v-3.6C118.3,138.9,118,138.6,117.5,138.6L117.5,138.6z"/>
	<path class="st0" d="M141.8,161.6c-1.8,0-3.3-1.2-3.3-2.9c0-2.5,2.1-3.5,2.6-3.8l4.6,4.9C145.3,160.4,144.1,161.6,141.8,161.6
		L141.8,161.6z M142.1,145.6c1.6,0,2.6,1.1,2.6,2.3c0,1.9-2.2,3-2.6,3.3l-0.7-0.7c-0.9-1-1.6-1.7-1.6-2.8S140.7,145.6,142.1,145.6
		L142.1,145.6z M150.3,159.4c0.4-0.7,1.4-2.7,1.9-4.9c0.1-0.3,0.3-1-0.5-1.2l-1.7-0.5c-0.7-0.2-0.9,0.1-1,0.8
		c-0.2,1.2-0.6,2.5-1.1,3.4l-3.6-3.6c0.6-0.6,3.8-2.5,3.8-5.7c0-2.8-2.4-5.1-5.9-5.1c-3.9,0-5.9,2.7-5.9,5c0,1.8,0.9,3.2,2.1,4.5
		l0.7,0.7v0.1c-0.6,0.3-4.3,2.1-4.3,6.2c0,3.2,2.6,5.8,6.6,5.8s6.2-2,6.8-2.6l2.2,2.3c0.5,0.5,1,0.4,1.4,0.1l1.3-1.3
		c0.7-0.7,0.4-1.1,0.1-1.4L150.3,159.4L150.3,159.4z"/>
	<path class="st0" d="M188,138.6h-17.7c-0.5,0-0.8,0.4-0.8,0.8v28.9c0,0.4,0.3,0.8,0.8,0.8h4c0.4,0,0.8-0.4,0.8-0.8v-11h10.7
		c0.4,0,0.8-0.4,0.8-0.8v-3.6c0-0.4-0.4-0.8-0.8-0.8h-10.7v-8.2H188c0.5,0,0.8-0.4,0.8-0.8v-3.6C188.8,138.9,188.5,138.6,188,138.6
		L188,138.6z"/>
	<path class="st0" d="M208.4,163.9c-5.5,0-10-4.5-10-10s4.5-10.1,10-10.1s10,4.6,10,10.1S213.9,163.9,208.4,163.9L208.4,163.9z
		 M208.4,138.1c-8.7,0-15.6,7-15.6,15.7s6.9,15.6,15.6,15.6c8.7,0,15.7-6.9,15.7-15.6C224.1,145.1,217.1,138.1,208.4,138.1
		L208.4,138.1z"/>
	<path class="st0" d="M277.1,163.8h-5v-19.9h5c5.7,0,9.8,4.3,9.8,9.9C286.9,159.4,282.7,163.8,277.1,163.8L277.1,163.8z
		 M277.6,138.6h-10.3c-0.4,0-0.8,0.4-0.8,0.8v28.9c0,0.4,0.3,0.8,0.8,0.8h10.3c8.4,0,15.3-6.8,15.3-15.3
		C292.9,145.4,286,138.6,277.6,138.6L277.6,138.6z"/>
	<polygon class="st0" points="261.8,136.3 261.8,136.3 261.8,136.3 261.8,136.3 	"/>
	<path class="st0" d="M244.2,163.9c-5.5,0-10-4.5-10-10s4.5-10.1,10-10.1s10,4.6,10,10.1S249.7,163.9,244.2,163.9L244.2,163.9z
		 M261.8,136.4c-5.2-3.7-7.8-1.7-8.7-0.4c0.1-0.7,0.2-1.5,0.1-2.3c0-0.3-0.3-0.5-0.6-0.5s-0.5,0.3-0.5,0.6c0.1,2-0.5,4-1.8,5.7
		c-1.9-0.8-4-1.3-6.3-1.3c-8.7,0-15.6,7-15.6,15.7s6.9,15.6,15.6,15.6c8.7,0,15.7-6.9,15.7-15.6c0-6.1-3.4-11.3-8.4-14
		c0.6-0.9,1.1-1.8,1.4-2.7C253.5,138.1,256.3,141.4,261.8,136.4L261.8,136.4z"/>
	<path class="st0" d="M56,147.6c-0.9-0.8-1.3-1.4-1.3-3.1v-5.6c0-0.1-0.1-0.3-0.3-0.3h-1.9c-0.1,0-0.3,0.1-0.3,0.3v5.6
		c0,1.7-0.4,2.3-1.3,3.1c-1,0.9-0.9,2.4-0.9,2.4v18.4c0,0.4,0.3,0.7,0.7,0.7h5.5c0.4,0,0.7-0.3,0.7-0.7v-18.4
		C56.9,149.9,57,148.4,56,147.6L56,147.6z"/>
</g>
</svg>
